<?xml version="1.0" encoding="UTF-8" standalone="no"?>
<!-- Created with Inkscape (http://www.inkscape.org/) -->

<svg
   xmlns:dc="http://purl.org/dc/elements/1.1/"
   xmlns:cc="http://creativecommons.org/ns#"
   xmlns:rdf="http://www.w3.org/1999/02/22-rdf-syntax-ns#"
   xmlns:svg="http://www.w3.org/2000/svg"
   xmlns="http://www.w3.org/2000/svg"
   xmlns:sodipodi="http://sodipodi.sourceforge.net/DTD/sodipodi-0.dtd"
   xmlns:inkscape="http://www.inkscape.org/namespaces/inkscape"
   version="1.1"
   id="svg834"
   width="608"
   height="769.33331"
   viewBox="0 0 608 769.33331"
   sodipodi:docname="witch_filled2.svg"
   inkscape:version="0.92.5 (2060ec1f9f, 2020-04-08)">
  <metadata
     id="metadata840">
    <rdf:RDF>
      <cc:Work
         rdf:about="">
        <dc:format>image/svg+xml</dc:format>
        <dc:type
           rdf:resource="http://purl.org/dc/dcmitype/StillImage" />
        <dc:title></dc:title>
      </cc:Work>
    </rdf:RDF>
  </metadata>
  <defs
     id="defs838" />
  <sodipodi:namedview
     pagecolor="#ffffff"
     bordercolor="#666666"
     borderopacity="1"
     objecttolerance="10"
     gridtolerance="10"
     guidetolerance="10"
     inkscape:pageopacity="0"
     inkscape:pageshadow="2"
     inkscape:window-width="1862"
     inkscape:window-height="1009"
     id="namedview836"
     showgrid="false"
     inkscape:zoom="0.76470475"
     inkscape:cx="242.84568"
     inkscape:cy="278.2294"
     inkscape:window-x="58"
     inkscape:window-y="34"
     inkscape:window-maximized="1"
     inkscape:current-layer="svg834" />
  <path
     style="fill:none;fill-rule:evenodd;stroke:#000000;stroke-width:1px;stroke-linecap:butt;stroke-linejoin:miter;stroke-opacity:1"
     d="m 156.66667,767.33331 77.4106,0.69231"
     id="path900"
     inkscape:connector-curvature="0" />
  <path
     style="fill:none;fill-rule:evenodd;stroke:#000000;stroke-width:1px;stroke-linecap:butt;stroke-linejoin:miter;stroke-opacity:1"
     d="m 494.30842,769.33331 h 69.3078"
     id="path902"
     inkscape:connector-curvature="0" />
  <path
     style="fill:#000011;fill-opacity:1;stroke:#000003;stroke-width:5.24227762;stroke-miterlimit:4;stroke-dasharray:none;stroke-opacity:1"
     d="m 324.26953,13.568359 c -0.21401,0.0063 -0.43101,0.02278 -0.64844,0.04687 -12.79818,1.385298 -18.86923,17.551462 -13.14062,28.265625 2.2063,6.904028 9.19272,11.547932 10.47656,18.667969 -2.72181,4.243112 -9.4267,2.19995 -13.60351,3.275391 -22.45658,0.362666 -44.33819,6.587558 -64.58204,16.064453 -35.63256,16.210955 -70.66048,33.896978 -104.30273,53.925778 -2.72116,1.29707 -9.24906,5.88457 -3.83203,8.06641 4.43273,1.14893 8.66496,-1.31727 12.8418,-1.5918 2.35442,0.61763 3.61947,2.84601 2.67968,5.00196 2.36625,4.23942 7.26265,-1.17841 10.47071,-1.8711 12.70089,-5.44976 24.68532,-13.27334 38.25195,-16.3457 3.43613,-0.91637 6.4486,2.60915 3.88476,5.49414 -7.89981,2.36878 -12.44599,10.43875 -18.87109,15.21484 -3.8762,2.23227 -8.24992,6.6988 -2.06445,9.33399 3.44213,2.85815 3.65302,7.74163 0.41797,10.79297 -13.55362,16.46395 -28.90357,31.96599 -39.42969,50.77148 -3.12339,7.8686 -7.12001,15.44331 -9.94141,23.39063 -0.25239,4.62229 5.64131,2.81192 6.77539,-0.20118 11.93726,-14.64715 22.03361,-30.94503 35.23047,-44.48632 3.08984,-1.8601 5.8968,1.47766 3.47461,4.18945 -11.99111,21.03896 -27.72926,39.71512 -38.45508,61.51172 -3.03431,6.46877 -7.47286,12.60332 -8.97461,19.63476 2.15351,4.9688 6.36626,-1.15329 9.13282,-2.17382 2.65935,-1.08479 5.55121,2.72509 7.51562,-0.9668 17.29119,-27.44271 36.31904,-53.78146 54.55078,-80.61524 12.54818,-17.16144 24.5792,-35.10802 40.29102,-49.49218 1.88328,-1.47353 5.7502,-3.71221 7.65625,-1.60157 -0.70132,12.41176 -5.21501,24.38167 -7.35742,36.61719 -2.46441,13.27108 -7.32787,26.02514 -11.97461,38.51172 1.04984,2.46351 4.95348,2.55509 5.96093,5.51367 3.07489,2.31171 7.12998,-4.97066 9.11915,-0.0976 1.51012,3.01174 -2.37692,6.72815 -4.97071,3.82031 -2.60334,-2.03402 -6.5166,-0.69666 -5.9414,2.96484 -1.08513,13.03306 -3.24864,26.12543 -3.17578,39.18164 1.87861,4.53595 6.43188,0.11294 6.52343,-3.08593 4.1534,-9.93674 3.51742,-21.99405 10.29297,-30.68946 4.14683,-0.14815 11.44726,1.92459 11.86524,-4.4668 7.96396,-28.58068 13.9949,-57.82794 25.19921,-85.39648 0.90144,-3.67063 5.57072,-4.8787 5.81836,-0.16992 1.73924,11.17837 5.57771,21.98788 6.16993,33.32031 0.69596,5.2721 7.12835,2.70922 9.38671,6.49414 3.90892,4.41934 4.87833,10.42621 6.72461,15.67969 2.38897,0.94415 3.96326,2.75854 3.8125,5.5957 3.60521,10.01289 7.69836,20.08821 12.63086,29.43164 5.22525,2.86895 12.42616,3.28831 16.33008,8.19727 -2.46268,5.35748 -8.26323,8.99395 -11.92187,13.68164 -28.90147,29.99903 -58.35114,59.50629 -87.625,89.10937 -6.28921,5.55532 -9.54231,14.72906 -17.40235,18.32618 -8.24901,0.80667 -12.13492,-7.83579 -18.83008,-10.94922 -8.13304,-5.8011 -14.96061,-13.9244 -23.29882,-19.03516 -0.23554,-7.41669 4.4996,-16.1378 -1.5918,-22.3457 -2.76524,-6.86064 -10.23435,-1.62247 -14.00781,1.51953 -6.47588,5.88946 -13.40675,12.45197 -15.36328,21.2793 -1.22357,5.07928 -7.20894,9.87007 -5.04493,15.33007 1.62954,3.84492 6.05551,4.27234 9.24024,2.10352 5.02384,-2.47702 11.94536,-3.0882 15.20898,2.18945 6.75738,3.70044 12.05881,9.44598 17.56836,14.69532 3.88432,5.20525 7.52665,10.71258 12.7461,14.65234 2.84716,3.65006 5.86006,9.1762 1.70898,13.125 -16.7784,23.84167 -39.51386,43.10687 -56.89258,66.56836 -7.79324,15.52628 -11.28079,32.82565 -19.11914,48.37305 -6.60575,14.39655 -14.19191,30.27342 -29.05859,38.0039 -4.866224,2.7976 -3.110222,12.40086 3.27539,11.20703 24.13201,2.02419 48.48429,0.95717 72.51758,3.49805 3.88253,0.95396 0.68409,6.68383 0.83789,9.30273 -5.46138,19.85222 -7.86553,40.45482 -8.83985,60.96094 -0.0307,3.90291 5.96261,1.18433 5.27735,5.19727 0.2079,4.76539 -6.7528,4.48681 -6.48047,9.50586 -2.48691,8.82464 0.38337,17.94109 -2.10156,26.76562 -1.666,16.27545 -4.67014,31.99259 -8.00391,48.04688 -1.38237,12.1999 -1.15036,24.74573 -0.625,36.8789 4.42355,2.67725 11.13562,0.45029 16.43945,1.17969 18.2918,-0.28189 36.7365,0.63981 54.85938,0.85156 2.81809,-4.34934 0.4983,-11.16961 1.2539,-16.47656 0.58077,-44.79998 -2.18916,-90.35026 5.82032,-134.41601 3.45009,-6.83416 -3.20023,-14.24026 0.44922,-21.1875 2.02655,-7.65207 1.10763,-16.13967 3.62695,-23.50782 6.58529,-2.33099 14.10108,-0.26103 21.00586,-0.85937 71.08841,1.17453 142.21431,4.32916 213.22851,6.21484 3.70283,0.92478 9.09101,-0.8398 11.85352,2.26563 3.19868,10.92782 1.32527,22.717 2.27539,33.96289 0.68707,35.61673 1.70302,71.40638 3.53125,106.85937 -0.33443,4.66006 -4.92271,8.45879 -2.99609,13.47852 1.85187,11.1957 6.09831,22.13486 6.16406,33.49023 4.43109,2.66341 11.13407,0.44426 16.4375,1.16992 8.93369,-0.43583 18.2383,0.87852 26.93359,-0.67578 1.19141,-4.54609 -6.59576,-5.88853 -6.14844,-11.03515 -2.00882,-7.20813 -0.41803,-14.51624 0.97461,-21.62305 0.46757,-4.98528 -5.86361,-7.60461 -4.25195,-12.8418 1.13124,-43.28271 1.28615,-86.62012 -0.91602,-129.84961 1.08723,-4.20323 -3.40233,-13.84916 3.48829,-12.46875 13.38685,-0.79486 27.05672,0.59294 40.2832,-1.73047 4.99096,-1.7271 4.99699,-7.6192 2.58008,-11.47656 -3.95202,-6.31622 -6.31419,-13.55759 -11.00196,-19.44922 -1.84923,-6.50028 -9.54307,-10.57269 -8.41992,-18.10937 -0.48004,-5.43171 -6.32456,-9.46108 -3.74023,-15.25977 1.95929,-3.78401 -0.10568,-7.84107 -3.9707,-9.24218 -3.62101,-1.47033 -5.57344,-5.90262 -2.39063,-8.96876 2.25352,-4.77685 -5.43549,-5.59192 -8.56836,-7.51757 -3.98232,-0.83481 -10.11148,-2.52012 -8.64258,-8 2.28306,-3.31747 0.73597,-7.33864 -3.01758,-8.51172 -4.6264,-1.95702 -10.65812,-4.94496 -9.32421,-11.06445 1.48671,-5.43514 -1.71388,-8.94029 -6.12891,-11.39063 -8.37237,-8.64365 -14.49577,-19.13708 -20.28516,-29.54492 -3.21813,-4.62339 -4.66752,-10.76205 -10.04492,-13.76563 -4.18144,-1.34402 -4.05133,-6.45775 -1.79687,-9.41211 0.63477,-7.02186 8.23648,-10.98376 9.20117,-18.09375 1.96556,-14.60742 10.67069,-27.11275 16.83594,-40.19922 1.57122,-2.8851 4.11247,-8.53904 8.04101,-4.99023 3.93168,3.2107 9.16531,4.8679 11.03125,-1.39062 4.06301,-4.0973 2.35711,-12.22937 8.37305,-14.32618 6.06324,-1.84328 11.2802,8.14192 16.17969,1.4961 4.86066,-4.31951 11.5954,-8.43909 13.2832,-15.03125 -0.93152,-2.52615 -4.47741,-3.20628 -4.46875,-6.54883 -1.0958,-5.1983 -3.08295,-11.36197 1.69336,-15.31445 4.641,-6.5162 8.69639,-13.60392 15.49023,-18.12305 7.835,-8.46371 12.87266,-19.42734 15.52735,-30.54688 0.19229,-4.14694 0.86292,-8.22639 3.10742,-11.69921 -0.2535,-4.08917 -3.18037,-7.73961 -2.74219,-12.10157 -2.22132,-39.04332 -2.58495,-78.67673 -7.93164,-117.304684 -1.44123,-15.279949 -0.53837,-30.980444 -5.36719,-45.835938 -1.39731,-7.386227 -1.01275,-15.825477 -7.05078,-21.46875 -2.96979,-3.40607 -7.75649,-9.845335 -12.78906,-6.589844 -8.09466,11.352929 -5.25715,26.236726 -6.08203,39.296875 0.008,14.133417 0.82372,28.290811 3.35156,42.179691 1.14898,16.02706 2.29005,32.11481 5.06445,47.98828 0.25994,14.1829 0.58687,28.54685 -1.74023,42.53906 v 5.0957 c 0.93215,2.13527 2.14594,4.26991 0.28125,6.46485 -0.0603,0.35377 -0.15657,0.69373 -0.28125,1.01562 l -1.15585,6.53015 1.5907,5.25912 c 0.97032,0.80378 -0.10287,4.44842 0.80929,5.2498 -0.022,4.83698 -3.47319,9.22761 -2.73828,14.33593 0.083,4.11895 -2.62064,6.92883 -4.8418,9.89453 -1.84589,8.73957 -8.56609,15.62798 -14.29883,22.20508 -4.28544,4.9037 -12.57695,5.87923 -16.52343,-0.0117 -3.75088,-2.62552 -6.62393,-8.42522 -11.5293,-8.45703 -3.82941,3.10116 2.71625,8.23465 -0.19727,11.70313 -4.05075,1.52145 -5.58107,6.33997 -8.625,9.17773 -1.29741,5.91373 1.05778,14.04693 7.70508,15.68555 6.05689,1.69888 4.08319,9.59187 3.29883,14.1543 -1.87945,5.85345 -8.86528,7.29758 -12.25781,12.0957 -13.44946,13.08969 -25.15373,28.16584 -40.30664,39.24804 -4.74432,1.51959 -2.52756,-5.31737 -6.05664,-6.45312 -5.96077,-3.74942 -13.78176,-1.82432 -19.79297,-4.69531 -1.06359,-8.9639 3.74581,-18.09684 2.11133,-27.00196 -5.13,-4.86704 -13.43311,-4.17415 -18.97266,-8.11328 0.17386,-4.80273 0.44958,-10.64604 -4.81445,-12.99804 -7.24022,-3.76985 -0.37154,-13.41761 -4.79102,-18.69532 -6.46156,-3.26899 -12.43768,-7.80458 -18.55859,-11.47851 -2.56601,-2.08643 -2.30576,-4.9125 0.32422,-6.70508 2.16644,-2.35398 1.9229,-5.71152 0.36328,-8.03125 1.06542,-7.12537 10.1218,-6.46102 14.98437,-9.64063 4.21135,-1.52852 8.00646,-4.42622 11.68359,-6.55273 3.23843,0.6678 8.28206,3.44639 9.66016,-1.32422 4.37117,-10.60369 7.71986,-21.66906 13.98242,-31.40234 3.14128,-4.97658 3.66385,-11.19717 5.57618,-16.41992 5.76702,-0.12541 7.76101,7.24239 10.73242,10.88671 3.35607,4.63646 5.05939,11.03451 9.53711,14.44532 3.81439,-0.4995 7.46735,0.88576 11.07617,1.33984 4.02112,-3.11168 -2.3962,-7.30681 -3.39453,-10.58789 -4.52581,-8.31291 -10.91676,-16.32709 -12.61719,-25.76758 0.34608,-4.48648 7.31917,0.23871 6.90625,-4.98242 0.0918,-1.61746 -1.56495,-5.95499 1.60156,-5.62891 7.44221,1.95875 11.99091,9.33038 17.84766,13.89258 10.27023,10.66411 22.55292,19.36243 32.3125,30.33789 3.74082,4.14473 7.0263,9.19815 11.90234,12.02735 4.78958,-0.27926 2.4992,-7.39289 6.76953,-8.90039 v -23.81055 c -10.04442,-8.33272 -19.1888,-17.86498 -28.64843,-26.82422 -2.28875,-1.57317 -2.08948,-5.88552 1.26171,-5.55469 3.54072,-3.27635 -2.58346,-6.69052 -3.55664,-9.81445 -1.20516,-4.67422 -4.38364,-8.24121 -8.74609,-10.36328 -11.22885,-7.36988 -24.27954,-13.19028 -32.56055,-24.14844 -1.90407,-2.76665 3.81657,-5.40247 -0.23632,-7.80078 -11.50746,-6.99117 -23.3731,-13.839913 -32.29688,-24.193359 -6.01236,-6.831687 -16.57696,-3.787667 -23.27734,-9.69336 -10.40411,-7.39718 -19.9431,-17.630565 -33.29883,-19.171875 -4.66521,0.218186 -2.51083,-4.60272 -0.86328,-6.677734 5.19649,-6.90764 10.16823,-17.342451 3.42187,-24.949219 -4.70675,-6.857368 -13.4904,-8.129635 -21.10547,-6.59375 -7.89248,0.516189 -17.36202,3.331789 -23.70117,-2.919922 -2.61465,-1.681356 -5.44609,-3.514941 -8.65625,-3.419922 z m 67.94531,89.236331 c 0.70627,-0.0139 1.41886,0.0124 2.12696,0.0723 10.99645,-0.11614 12.2033,20.1522 0.85937,20.59766 -7.59971,1.93169 -15.57164,-4.91703 -13.36719,-12.82227 0.79279,-5.72071 5.437,-7.75067 10.38086,-7.84765 z m -52.75976,1.95898 c 9.9855,0.24711 13.12667,15.34205 4.64258,20.13281 -6.52376,4.06865 -17.65894,-0.61755 -15.97266,-9.22265 -0.80933,-6.60388 5.21549,-11.13076 11.33008,-10.91016 z m -8.89258,33.30274 c 0.26004,-0.002 0.52749,0.01 0.80469,0.0352 17.30952,2.3692 34.05596,9.14023 51.79101,8.37696 9.37727,1.44652 16.96194,-5.53528 26.01563,-5.91797 8.34382,-0.29584 8.48217,11.60397 2.90039,15.50586 -9.99615,10.01494 -25.064,8.55493 -37.98438,8.51953 -15.44746,-1.02896 -31.09991,-3.88078 -45.23046,-10.21094 -6.21263,-3.1317 -6.35813,-16.23888 1.70312,-16.30859 z"
     id="path912"
     inkscape:connector-curvature="0"
     sodipodi:nodetypes="cccccccccccccccccccccccccccccccccccccccccccccccccccccccccccccccccccccccccccccccccccccccccccccccccccccccccccccccccccccccccccccccccccccccccccccccccccccccccccccccccccccccccccccccccccccccccccccccccccccccccc" />
</svg>
