<?xml version="1.0" encoding="UTF-8" standalone="no"?>
<!-- Created with Inkscape (http://www.inkscape.org/) -->

<svg
   xmlns:dc="http://purl.org/dc/elements/1.1/"
   xmlns:cc="http://creativecommons.org/ns#"
   xmlns:rdf="http://www.w3.org/1999/02/22-rdf-syntax-ns#"
   xmlns:svg="http://www.w3.org/2000/svg"
   xmlns="http://www.w3.org/2000/svg"
   xmlns:sodipodi="http://sodipodi.sourceforge.net/DTD/sodipodi-0.dtd"
   xmlns:inkscape="http://www.inkscape.org/namespaces/inkscape"
   width="210mm"
   height="297mm"
   viewBox="0 0 210 297"
   version="1.1"
   id="svg8"
   inkscape:version="0.91 r13725"
   sodipodi:docname="tablet_stand_side_profile_v0.1.svg">
  <defs
     id="defs2" />
  <sodipodi:namedview
     id="base"
     pagecolor="#ffffff"
     bordercolor="#666666"
     borderopacity="1.0"
     inkscape:pageopacity="0.0"
     inkscape:pageshadow="2"
     inkscape:zoom="2.8"
     inkscape:cx="400.43751"
     inkscape:cy="472.75663"
     inkscape:document-units="mm"
     inkscape:current-layer="layer1"
     showgrid="false"
     inkscape:window-width="1855"
     inkscape:window-height="1056"
     inkscape:window-x="65"
     inkscape:window-y="24"
     inkscape:window-maximized="1" />
  <metadata
     id="metadata5">
    <rdf:RDF>
      <cc:Work
         rdf:about="">
        <dc:format>image/svg+xml</dc:format>
        <dc:type
           rdf:resource="http://purl.org/dc/dcmitype/StillImage" />
        <dc:title></dc:title>
      </cc:Work>
    </rdf:RDF>
  </metadata>
  <g
     inkscape:label="Layer 1"
     inkscape:groupmode="layer"
     id="layer1">
    <path
       style="fill:#000000;fill-opacity:1;stroke:#000000;stroke-width:0;stroke-miterlimit:4;stroke-dasharray:none;stroke-opacity:1"
       d="m 97.094485,134.96324 c -1.042393,0.18959 -1.585815,1.27576 -2.143833,2.06804 -1.432286,2.34101 -2.513816,4.95231 -2.676505,7.71944 -0.29122,3.96111 -0.213092,8.01034 -1.603683,11.78945 -0.813813,2.49519 -2.70968,4.74271 -5.310341,5.41674 -0.905064,0.3096 -1.814819,0.60188 -2.784447,0.47783 -8.050993,-0.0363 -16.109984,-0.008 -24.155987,-0.0847 -1.644862,-0.44708 -3.368819,-0.87222 -5.079294,-0.58864 -1.329634,0.62098 -1.800039,2.207 -2.04619,3.54136 -0.07574,0.93351 -0.337318,2.15761 0.483887,2.84565 0.627871,0.41584 1.468732,0.15353 2.175857,0.2575 15.855038,0.10426 31.710996,0.0278 47.566391,0.0415 17.15022,-0.008 34.30043,-0.017 51.45063,-0.0255 1.17443,-0.61066 1.17661,-2.15522 0.79947,-3.25748 -0.49416,-1.48764 -1.56213,-3.14158 -3.28466,-3.24863 -1.88286,-0.14496 -3.68554,0.61206 -5.53223,0.76409 -7.77167,0.0203 -15.54335,0.0405 -23.31503,0.0606 -1.71621,-0.49786 -3.49531,-1.18985 -4.55244,-2.68698 -1.8806,-2.58875 -2.37865,-5.86484 -2.73423,-8.96296 -0.28763,-3.40799 -0.2695,-6.93659 -1.60571,-10.15217 -0.68001,-1.62911 -1.38985,-3.27023 -2.34945,-4.75505 -0.47953,-0.53018 -1.41289,-1.08677 -2.07592,-0.5711 -0.32578,0.67987 -0.13184,1.51033 -0.21654,2.2454 -0.11153,7.3611 -0.009,14.72524 -0.19057,22.08446 -0.0424,1.16429 -0.6658,2.66535 -2.01686,2.73284 -1.97387,0.1137 -3.94918,0.0115 -5.930287,0.0104 -0.74538,-0.26148 -1.40348,-0.79676 -1.60168,-1.59123 -0.39977,-1.25026 -0.17672,-2.60578 -0.26655,-3.91067 -0.0789,-7.0858 0.005,-14.17722 -0.17619,-21.26255 0.0448,-0.48194 -0.320412,-0.97379 -0.827608,-0.95754 z"
       id="path4199"
       inkscape:connector-curvature="0" />
  </g>
</svg>
