<?xml version="1.0" encoding="UTF-8" standalone="no"?>
<!-- Created with Inkscape (http://www.inkscape.org/) -->

<svg
   xmlns:dc="http://purl.org/dc/elements/1.1/"
   xmlns:cc="http://creativecommons.org/ns#"
   xmlns:rdf="http://www.w3.org/1999/02/22-rdf-syntax-ns#"
   xmlns:svg="http://www.w3.org/2000/svg"
   xmlns="http://www.w3.org/2000/svg"
   xmlns:sodipodi="http://sodipodi.sourceforge.net/DTD/sodipodi-0.dtd"
   xmlns:inkscape="http://www.inkscape.org/namespaces/inkscape"
   width="210mm"
   height="297mm"
   viewBox="0 0 210 297"
   version="1.1"
   id="svg8"
   inkscape:version="0.91 r13725"
   sodipodi:docname="tablet_stand_side_profile_v0.svg">
  <defs
     id="defs2" />
  <sodipodi:namedview
     id="base"
     pagecolor="#ffffff"
     bordercolor="#666666"
     borderopacity="1.0"
     inkscape:pageopacity="0.0"
     inkscape:pageshadow="2"
     inkscape:zoom="0.98994949"
     inkscape:cx="449.39061"
     inkscape:cy="480.90761"
     inkscape:document-units="mm"
     inkscape:current-layer="layer1"
     showgrid="false"
     inkscape:window-width="1855"
     inkscape:window-height="1056"
     inkscape:window-x="65"
     inkscape:window-y="24"
     inkscape:window-maximized="1" />
  <metadata
     id="metadata5">
    <rdf:RDF>
      <cc:Work
         rdf:about="">
        <dc:format>image/svg+xml</dc:format>
        <dc:type
           rdf:resource="http://purl.org/dc/dcmitype/StillImage" />
        <dc:title />
      </cc:Work>
    </rdf:RDF>
  </metadata>
  <g
     inkscape:label="Layer 1"
     inkscape:groupmode="layer"
     id="layer1">
    <path
       style="color:#000000;font-style:normal;font-variant:normal;font-weight:normal;font-stretch:normal;font-size:medium;line-height:normal;font-family:sans-serif;text-indent:0;text-align:start;text-decoration:none;text-decoration-line:none;text-decoration-style:solid;text-decoration-color:#000000;letter-spacing:normal;word-spacing:normal;text-transform:none;direction:ltr;block-progression:tb;writing-mode:lr-tb;baseline-shift:baseline;text-anchor:start;white-space:normal;clip-rule:nonzero;display:inline;overflow:visible;visibility:visible;opacity:1;isolation:auto;mix-blend-mode:normal;color-interpolation:sRGB;color-interpolation-filters:linearRGB;solid-color:#000000;solid-opacity:1;fill:#000000;fill-opacity:1;fill-rule:evenodd;stroke:none;stroke-width:0.26458332px;stroke-linecap:butt;stroke-linejoin:miter;stroke-miterlimit:4;stroke-dasharray:none;stroke-dashoffset:0;stroke-opacity:1;color-rendering:auto;image-rendering:auto;shape-rendering:auto;text-rendering:auto;enable-background:accumulate"
       d="m 99.595703,131.61719 c -0.615928,-0.026 -1.3342,0.52275 -2.037109,1.63281 -2.432768,3.84191 -2.924145,6.48846 -3.078125,9.1875 -0.15398,2.69904 0.02199,5.44367 -1.080078,9.55664 -0.710621,2.65209 -1.819043,4.69875 -4.177735,6.06055 -0.439186,0.25356 -1.214963,0.51508 -1.873047,0.70703 -0.653817,0.1907 -1.186383,0.31284 -1.193359,0.31445 l -24.085938,0 c -1.168673,0 -2.588168,-0.4608 -3.914062,-0.69531 -0.662947,-0.11726 -1.304742,-0.1786 -1.888672,-0.0879 -0.58393,0.0907 -1.111689,0.3396 -1.515625,0.83008 -0.61461,0.74628 -1.178016,2.25485 -1.285156,3.61133 -0.05357,0.67823 0.0065,1.31904 0.259765,1.80859 0.253256,0.48955 0.719842,0.81675 1.394532,0.82031 5.133837,0.0271 5.079068,0 7.617187,0 l 84.400389,0 c 2.53742,0 3.55461,0.0473 7.61914,0 0.65694,-0.008 1.13937,-0.27229 1.42969,-0.69336 0.29032,-0.42107 0.39443,-0.98494 0.35742,-1.59765 -0.074,-1.22544 -0.7087,-2.66769 -1.69531,-3.6543 -1.00479,-1.00479 -2.42147,-0.99817 -3.89258,-0.75586 -1.4711,0.24231 -3.02412,0.71875 -4.35156,0.71875 l -22.52539,0 c -0.0121,-0.003 -0.44226,-0.11793 -0.97461,-0.28711 -0.53981,-0.17155 -1.17508,-0.39879 -1.51953,-0.59766 -2.21151,-1.27681 -3.16546,-3.27066 -3.83399,-5.76562 -1.1344,-4.23365 -0.96287,-6.66781 -1.16211,-9.27539 -0.19923,-2.60758 -0.7746,-5.37393 -3.39257,-10.19922 -0.30509,-0.56231 -0.97194,-1.0722 -1.60547,-1.20313 -0.31677,-0.0655 -0.63916,-0.0286 -0.87696,0.17969 -0.23779,0.2083 -0.37059,0.56587 -0.36718,1.08789 0.0113,1.73589 0,2.75586 0,2.75586 l 0,0.002 0,18.49415 0,0.004 c 0,0 0.0485,0.80118 -0.0469,1.7461 -0.0953,0.94491 -0.34613,2.02582 -0.88281,2.5625 -0.34242,0.34241 -0.93158,0.47856 -1.43945,0.51562 -0.50788,0.0371 -0.92188,-0.0195 -0.92188,-0.0195 l -0.01,0 -3.35352,0 -0.006,0 c 0,0 -0.39826,0.026 -0.88086,-0.0293 -0.4826,-0.0553 -1.0392,-0.19936 -1.33984,-0.5 -0.56672,-0.56672 -0.80198,-1.70421 -0.87305,-2.69922 -0.0711,-0.99501 0.01,-1.83984 0.01,-1.83984 l 0,-0.006 0,-18.46484 0,-2.52149 c 0,-0.51673 -0.0899,-0.9267 -0.26172,-1.2207 -0.17184,-0.294 -0.438133,-0.46941 -0.746097,-0.48242 z m -0.01172,0.26367 c 0.219456,0.009 0.391956,0.11853 0.529296,0.35352 0.13734,0.23498 0.22656,0.60041 0.22656,1.08593 l 0,2.52149 0,18.45898 c -0.001,0.0124 -0.0821,0.85871 -0.01,1.8711 0.0728,1.01978 0.28752,2.20353 0.94922,2.86523 0.38097,0.38097 0.98717,0.51983 1.49609,0.57812 0.5036,0.0577 0.91317,0.0299 0.92188,0.0293 l 3.34179,0 -0.0176,-0.002 c 0,0 0.43906,0.0607 0.97657,0.0215 0.53751,-0.0392 1.18589,-0.17027 1.60742,-0.59179 0.62875,-0.62875 0.86125,-1.75396 0.95898,-2.72266 0.0973,-0.96447 0.0473,-1.77413 0.0469,-1.78125 l 0,-0.008 0,-18.48047 0,-0.002 c 1e-5,-0.001 0.0113,-1.02328 0,-2.75976 -0.003,-0.47687 0.11649,-0.74582 0.27734,-0.88672 0.16085,-0.1409 0.38356,-0.17388 0.64844,-0.11914 0.52975,0.10948 1.17063,0.59645 1.42773,1.07031 2.60558,4.80245 3.16394,7.51026 3.36133,10.09375 0.1974,2.58349 0.0272,5.05766 1.16992,9.32227 0.6758,2.52209 1.67036,4.60557 3.95703,5.92578 0.38853,0.22431 1.02578,0.44742 1.57227,0.62109 0.54649,0.17368 1,0.29492 1,0.29492 l 0.0176,0.004 22.5625,0 c 1.3898,0 2.94943,-0.48462 4.39453,-0.72265 1.4451,-0.23804 2.74552,-0.233 3.66211,0.68359 0.93477,0.93477 1.54992,2.33654 1.61914,3.48242 0.0346,0.57294 -0.0668,1.07812 -0.31055,1.43164 -0.24374,0.35352 -0.62461,0.57126 -1.21484,0.57813 -4.06197,0.0473 -5.07649,0 -7.61719,0 l -84.400389,0 c -2.540002,0 -2.484271,0.0271 -7.617187,0 -0.594823,-0.003 -0.943069,-0.25615 -1.160156,-0.67578 -0.217088,-0.41964 -0.281703,-1.01737 -0.230469,-1.66602 0.102467,-1.2973 0.675114,-2.7933 1.226562,-3.46289 0.360657,-0.43792 0.814927,-0.65492 1.351563,-0.73828 0.536635,-0.0834 1.153438,-0.0269 1.802734,0.0879 1.298591,0.22968 2.722232,0.69726 3.958984,0.69726 l 24.123047,0 0.01563,-0.004 c 0,0 0.548972,-0.12609 1.214844,-0.32032 0.665872,-0.19422 1.445621,-0.45181 1.931641,-0.73242 2.427436,-1.40148 3.581042,-3.53457 4.300781,-6.2207 1.111514,-4.14823 0.935152,-6.9321 1.087891,-9.60938 0.152738,-2.67727 0.626923,-5.25316 3.039062,-9.0625 0.67928,-1.07274 1.36187,-1.52831 1.800781,-1.50976 z"
       id="path815"
       inkscape:connector-curvature="0" />
  </g>
</svg>
