solid OpenSCAD_Model
  facet normal 0 0 -1
    outer loop
      vertex -63.5 -63.5 0
      vertex 63.5 63.5 0
      vertex 63.5 -63.5 0
    endloop
  endfacet
  facet normal -0 0 -1
    outer loop
      vertex 63.5 63.5 0
      vertex -63.5 -63.5 0
      vertex -63.5 63.5 0
    endloop
  endfacet
  facet normal -1 0 0
    outer loop
      vertex -63.5 -63.5 17.6375
      vertex -63.5 63.5 0
      vertex -63.5 -63.5 0
    endloop
  endfacet
  facet normal -1 0 0
    outer loop
      vertex -63.5 63.5 0
      vertex -63.5 -63.5 17.6375
      vertex -63.5 63.5 20.9663
    endloop
  endfacet
  facet normal 0 1 0
    outer loop
      vertex -63.5 63.5 0
      vertex 63.5 63.5 15.4214
      vertex 63.5 63.5 0
    endloop
  endfacet
  facet normal 0 1 0
    outer loop
      vertex 63.5 63.5 15.4214
      vertex -63.5 63.5 0
      vertex -63.5 63.5 20.9663
    endloop
  endfacet
  facet normal 1 -0 0
    outer loop
      vertex 63.5 -63.5 12.0926
      vertex 63.5 63.5 0
      vertex 63.5 63.5 15.4214
    endloop
  endfacet
  facet normal 1 0 0
    outer loop
      vertex 63.5 63.5 0
      vertex 63.5 -63.5 12.0926
      vertex 63.5 -63.5 0
    endloop
  endfacet
  facet normal 0 -1 0
    outer loop
      vertex -63.5 -63.5 0
      vertex 63.5 -63.5 12.0926
      vertex -63.5 -63.5 17.6375
    endloop
  endfacet
  facet normal 0 -1 -0
    outer loop
      vertex 63.5 -63.5 12.0926
      vertex -63.5 -63.5 0
      vertex 63.5 -63.5 0
    endloop
  endfacet
  facet normal 0.0435928 -0.0261318 0.998708
    outer loop
      vertex -34.9534 37.7022 19.0438
      vertex 63.5 63.5 15.4214
      vertex -34.928 38.1 19.0531
    endloop
  endfacet
  facet normal 0.0436067 -0.0261859 0.998706
    outer loop
      vertex 63.5 63.5 15.4214
      vertex -34.9525 38.4978 19.0646
      vertex -34.928 38.1 19.0531
    endloop
  endfacet
  facet normal 0.0436053 -0.0261804 0.998706
    outer loop
      vertex 63.5 63.5 15.4214
      vertex -35.0267 38.8892 19.0781
      vertex -34.9525 38.4978 19.0646
    endloop
  endfacet
  facet normal 0.0370883 0 0.999312
    outer loop
      vertex 63.5 63.5 15.4214
      vertex -35.0267 38.8893 19.0781
      vertex -35.0267 38.8892 19.0781
    endloop
  endfacet
  facet normal 0.0370883 0 0.999312
    outer loop
      vertex 63.5 63.5 15.4214
      vertex -35.0267 38.8894 19.0781
      vertex -35.0267 38.8893 19.0781
    endloop
  endfacet
  facet normal 0.0436098 -0.0261986 0.998705
    outer loop
      vertex 63.5 63.5 15.4214
      vertex -35.1494 39.2684 19.0934
      vertex -35.0267 38.8894 19.0781
    endloop
  endfacet
  facet normal 0.0435808 -0.02608 0.998709
    outer loop
      vertex 63.5 63.5 15.4214
      vertex -35.3186 39.629 19.1102
      vertex -35.1494 39.2684 19.0934
    endloop
  endfacet
  facet normal 0.037303 0 0.999304
    outer loop
      vertex 63.5 63.5 15.4214
      vertex -35.3186 39.6291 19.1102
      vertex -35.3186 39.629 19.1102
    endloop
  endfacet
  facet normal 0.0435919 -0.0261264 0.998708
    outer loop
      vertex 63.5 63.5 15.4214
      vertex -35.5316 39.9656 19.1283
      vertex -35.3186 39.6291 19.1102
    endloop
  endfacet
  facet normal 0.0435917 -0.0261253 0.998708
    outer loop
      vertex 63.5 63.5 15.4214
      vertex -35.7852 40.2726 19.1474
      vertex -35.5316 39.9656 19.1283
    endloop
  endfacet
  facet normal 0.0375019 0 0.999297
    outer loop
      vertex 63.5 63.5 15.4214
      vertex -35.7852 40.2727 19.1474
      vertex -35.7852 40.2726 19.1474
    endloop
  endfacet
  facet normal 0.0436608 -0.0264226 0.998697
    outer loop
      vertex 63.5 63.5 15.4214
      vertex -36.0753 40.5455 19.1673
      vertex -35.7852 40.2727 19.1474
    endloop
  endfacet
  facet normal 0.0436077 -0.0261909 0.998705
    outer loop
      vertex 63.5 63.5 15.4214
      vertex -36.3972 40.7798 19.1875
      vertex -36.0753 40.5455 19.1673
    endloop
  endfacet
  facet normal 0 0.163529 0.986539
    outer loop
      vertex 63.5 63.5 15.4214
      vertex -36.3973 40.7798 19.1875
      vertex -36.3972 40.7798 19.1875
    endloop
  endfacet
  facet normal 0.0435534 -0.025951 0.998714
    outer loop
      vertex 63.5 63.5 15.4214
      vertex -36.7461 40.9718 19.2077
      vertex -36.3973 40.7798 19.1875
    endloop
  endfacet
  facet normal 0.0436041 -0.026178 0.998706
    outer loop
      vertex -63.5 63.5 20.9663
      vertex -36.7461 40.9718 19.2077
      vertex 63.5 63.5 15.4214
    endloop
  endfacet
  facet normal 0.0435611 -0.0262292 0.998706
    outer loop
      vertex -37.1163 41.1185 19.2277
      vertex -36.7461 40.9718 19.2077
      vertex -63.5 63.5 20.9663
    endloop
  endfacet
  facet normal 0 -0.135083 0.990834
    outer loop
      vertex -36.7461 40.9718 19.2077
      vertex -37.1163 41.1185 19.2277
      vertex -36.7462 40.9718 19.2077
    endloop
  endfacet
  facet normal 0.0438263 -0.0259162 0.998703
    outer loop
      vertex -37.1163 41.1185 19.2277
      vertex -63.5 63.5 20.9663
      vertex -37.502 41.2177 19.2472
    endloop
  endfacet
  facet normal 0.0434318 -0.026377 0.998708
    outer loop
      vertex -37.502 41.2177 19.2472
      vertex -63.5 63.5 20.9663
      vertex -37.8971 41.2676 19.2657
    endloop
  endfacet
  facet normal 0 -0.0762692 0.997087
    outer loop
      vertex -37.8971 41.2676 19.2657
      vertex -63.5 63.5 20.9663
      vertex -37.8972 41.2676 19.2657
    endloop
  endfacet
  facet normal 0.0436291 -0.0261497 0.998706
    outer loop
      vertex -37.8972 41.2676 19.2657
      vertex -63.5 63.5 20.9663
      vertex -38.2955 41.2676 19.2831
    endloop
  endfacet
  facet normal 0.0437219 -0.0260445 0.998704
    outer loop
      vertex -38.2955 41.2676 19.2831
      vertex -63.5 63.5 20.9663
      vertex -38.6907 41.2177 19.2991
    endloop
  endfacet
  facet normal 0.0364131 0 -0.999337
    outer loop
      vertex -41.0479 39.2684 19.3509
      vertex -41.1714 38.8893 19.3464
      vertex -41.1714 38.8894 19.3464
    endloop
  endfacet
  facet normal -0.34382 0 0.939036
    outer loop
      vertex -41.2465 38.4978 19.3394
      vertex -41.2719 38.1 19.3301
      vertex -41.2465 38.4977 19.3394
    endloop
  endfacet
  facet normal 0.0436494 -0.0261354 0.998705
    outer loop
      vertex -41.2465 38.4978 19.3394
      vertex -63.5 63.5 20.9663
      vertex -41.2719 38.1 19.3301
    endloop
  endfacet
  facet normal 0.0435621 -0.0262132 0.998707
    outer loop
      vertex -41.1714 38.8893 19.3464
      vertex -63.5 63.5 20.9663
      vertex -41.2465 38.4978 19.3394
    endloop
  endfacet
  facet normal 0.0436974 -0.0260902 0.998704
    outer loop
      vertex -41.0479 39.2684 19.3509
      vertex -63.5 63.5 20.9663
      vertex -41.1714 38.8893 19.3464
    endloop
  endfacet
  facet normal 0.0436534 -0.026131 0.998705
    outer loop
      vertex -40.8778 39.629 19.3529
      vertex -63.5 63.5 20.9663
      vertex -41.0479 39.2684 19.3509
    endloop
  endfacet
  facet normal 0.0435821 -0.0261987 0.998706
    outer loop
      vertex -40.664 39.9656 19.3524
      vertex -63.5 63.5 20.9663
      vertex -40.8778 39.629 19.3529
    endloop
  endfacet
  facet normal 0.0435076 -0.0262711 0.998708
    outer loop
      vertex -40.4097 40.2727 19.3494
      vertex -63.5 63.5 20.9663
      vertex -40.664 39.9656 19.3524
    endloop
  endfacet
  facet normal 0.0437143 -0.0260654 0.998704
    outer loop
      vertex -40.1191 40.5455 19.3438
      vertex -63.5 63.5 20.9663
      vertex -40.4097 40.2727 19.3494
    endloop
  endfacet
  facet normal 0.0435267 -0.0262567 0.998707
    outer loop
      vertex -39.7965 40.7798 19.3359
      vertex -63.5 63.5 20.9663
      vertex -40.1191 40.5455 19.3438
    endloop
  endfacet
  facet normal 0.0435707 -0.0262107 0.998706
    outer loop
      vertex -39.4472 40.9718 19.3257
      vertex -63.5 63.5 20.9663
      vertex -39.7965 40.7798 19.3359
    endloop
  endfacet
  facet normal 0.043734 -0.0260362 0.998704
    outer loop
      vertex -39.0767 41.1185 19.3133
      vertex -63.5 63.5 20.9663
      vertex -39.4472 40.9718 19.3257
    endloop
  endfacet
  facet normal 0.0435064 -0.0262849 0.998707
    outer loop
      vertex -38.6908 41.2177 19.2991
      vertex -63.5 63.5 20.9663
      vertex -39.0767 41.1185 19.3133
    endloop
  endfacet
  facet normal 0 -0.0746132 0.997213
    outer loop
      vertex -38.6907 41.2177 19.2991
      vertex -63.5 63.5 20.9663
      vertex -38.6908 41.2177 19.2991
    endloop
  endfacet
  facet normal 0.0497337 -0.0497337 0.997523
    outer loop
      vertex -34.9535 37.7021 19.0438
      vertex 63.5 63.5 15.4214
      vertex -34.9534 37.7022 19.0438
    endloop
  endfacet
  facet normal 0.0436155 -0.0262189 0.998704
    outer loop
      vertex -35.0285 37.3107 19.0368
      vertex 63.5 63.5 15.4214
      vertex -34.9535 37.7021 19.0438
    endloop
  endfacet
  facet normal 0.0436468 -0.0263371 0.9987
    outer loop
      vertex -35.152 36.9316 19.0322
      vertex 63.5 63.5 15.4214
      vertex -35.0285 37.3107 19.0368
    endloop
  endfacet
  facet normal 0 -0.134668 -0.990891
    outer loop
      vertex -35.1521 36.9316 19.0322
      vertex 63.5 63.5 15.4214
      vertex -35.152 36.9316 19.0322
    endloop
  endfacet
  facet normal 0.0435766 -0.0260755 0.99871
    outer loop
      vertex -35.3221 36.5709 19.0302
      vertex 63.5 63.5 15.4214
      vertex -35.1521 36.9316 19.0322
    endloop
  endfacet
  facet normal 0.0117639 0 -0.999931
    outer loop
      vertex -35.3221 36.5709 19.0302
      vertex -35.1521 36.9316 19.0322
      vertex -35.1521 36.9315 19.0322
    endloop
  endfacet
  facet normal 0.0436042 -0.0261771 0.998706
    outer loop
      vertex 63.5 63.5 15.4214
      vertex -35.3221 36.5709 19.0302
      vertex 63.5 -63.5 12.0926
    endloop
  endfacet
  facet normal 0.0435774 -0.0262036 0.998706
    outer loop
      vertex -35.3221 36.5709 19.0302
      vertex -35.5359 36.2344 19.0307
      vertex 63.5 -63.5 12.0926
    endloop
  endfacet
  facet normal 0.0436871 -0.0260945 0.998704
    outer loop
      vertex -35.7902 35.9273 19.0338
      vertex 63.5 -63.5 12.0926
      vertex -35.5359 36.2344 19.0307
    endloop
  endfacet
  facet normal -0.0189165 0 -0.999821
    outer loop
      vertex -36.0809 35.6544 19.0393
      vertex -35.7902 35.9273 19.0338
      vertex -35.7902 35.9272 19.0338
    endloop
  endfacet
  facet normal 0.0435349 -0.0262467 0.998707
    outer loop
      vertex -35.7902 35.9273 19.0338
      vertex -36.0809 35.6544 19.0393
      vertex 63.5 -63.5 12.0926
    endloop
  endfacet
  facet normal 0.0435291 -0.0262525 0.998707
    outer loop
      vertex -36.4034 35.4202 19.0472
      vertex 63.5 -63.5 12.0926
      vertex -36.0809 35.6544 19.0393
    endloop
  endfacet
  facet normal 0.0438935 -0.0262557 0.998691
    outer loop
      vertex -63.5 -63.5 17.6375
      vertex -36.4034 35.4202 19.0472
      vertex -36.7526 35.2282 19.0575
    endloop
  endfacet
  facet normal 0.0197198 -0.0197198 0.999611
    outer loop
      vertex -63.5 -63.5 17.6375
      vertex -36.7526 35.2282 19.0575
      vertex -36.7527 35.2281 19.0575
    endloop
  endfacet
  facet normal 0.0435106 -0.0261522 0.998711
    outer loop
      vertex -63.5 -63.5 17.6375
      vertex -36.7527 35.2281 19.0575
      vertex -37.1232 35.0814 19.0698
    endloop
  endfacet
  facet normal 0 -0.0145276 0.999894
    outer loop
      vertex -63.5 -63.5 17.6375
      vertex -37.1232 35.0814 19.0698
      vertex -37.1233 35.0814 19.0698
    endloop
  endfacet
  facet normal 0.0434624 -0.0261393 0.998713
    outer loop
      vertex -63.5 -63.5 17.6375
      vertex -37.1233 35.0814 19.0698
      vertex -37.5092 34.9823 19.084
    endloop
  endfacet
  facet normal 0.0437612 -0.026218 0.998698
    outer loop
      vertex -63.5 -63.5 17.6375
      vertex -37.5092 34.9823 19.084
      vertex -37.9043 34.9323 19.1
    endloop
  endfacet
  facet normal 0 -0.0148563 0.99989
    outer loop
      vertex -63.5 -63.5 17.6375
      vertex -37.9043 34.9323 19.1
      vertex -37.9044 34.9323 19.1
    endloop
  endfacet
  facet normal 0 -0.0148563 0.99989
    outer loop
      vertex -63.5 -63.5 17.6375
      vertex -37.9044 34.9323 19.1
      vertex -37.9045 34.9323 19.1
    endloop
  endfacet
  facet normal 0.04364 -0.0261865 0.998704
    outer loop
      vertex -63.5 -63.5 17.6375
      vertex -37.9045 34.9323 19.1
      vertex -38.3027 34.9323 19.1174
    endloop
  endfacet
  facet normal 0.0434554 -0.0261393 0.998713
    outer loop
      vertex -63.5 -63.5 17.6375
      vertex -38.3027 34.9323 19.1174
      vertex -38.6978 34.9823 19.1359
    endloop
  endfacet
  facet normal 0.694826 -0.18556 0.694826
    outer loop
      vertex -63.5 -63.5 17.6375
      vertex -38.6978 34.9823 19.1359
      vertex -38.6979 34.9823 19.136
    endloop
  endfacet
  facet normal 0.0435132 -0.0261548 0.99871
    outer loop
      vertex -63.5 -63.5 17.6375
      vertex -38.6979 34.9823 19.136
      vertex -39.0836 35.0814 19.1554
    endloop
  endfacet
  facet normal 0 -0.0153956 0.999881
    outer loop
      vertex -63.5 -63.5 17.6375
      vertex -39.0836 35.0814 19.1554
      vertex -39.0837 35.0814 19.1554
    endloop
  endfacet
  facet normal 0.0435944 -0.0261748 0.998706
    outer loop
      vertex -63.5 -63.5 17.6375
      vertex -39.0837 35.0814 19.1554
      vertex -39.4538 35.2281 19.1754
    endloop
  endfacet
  facet normal 0.0436838 -0.0261965 0.998702
    outer loop
      vertex -63.5 -63.5 17.6375
      vertex -39.4538 35.2281 19.1754
      vertex -39.8027 35.4202 19.1957
    endloop
  endfacet
  facet normal 0.0436224 -0.0261819 0.998705
    outer loop
      vertex -63.5 -63.5 17.6375
      vertex -39.8027 35.4202 19.1957
      vertex -40.1246 35.6544 19.2159
    endloop
  endfacet
  facet normal -0.0680939 -0 -0.997679
    outer loop
      vertex -40.4147 35.9273 19.2357
      vertex -40.1246 35.6544 19.2159
      vertex -40.4147 35.9272 19.2357
    endloop
  endfacet
  facet normal 0.0435505 -0.026165 0.998709
    outer loop
      vertex -40.1246 35.6544 19.2159
      vertex -40.4147 35.9273 19.2357
      vertex -63.5 -63.5 17.6375
    endloop
  endfacet
  facet normal 0.902585 0.304418 -0.304418
    outer loop
      vertex -41.1732 37.3107 19.3051
      vertex -41.0505 36.9316 19.2898
      vertex -41.1732 37.3106 19.305
    endloop
  endfacet
  facet normal 0.0435906 -0.0261869 0.998706
    outer loop
      vertex -63.5 63.5 20.9663
      vertex -41.2474 37.7022 19.3186
      vertex -41.2719 38.1 19.3301
    endloop
  endfacet
  facet normal 0.0738431 0 0.99727
    outer loop
      vertex -63.5 63.5 20.9663
      vertex -41.2474 37.7021 19.3186
      vertex -41.2474 37.7022 19.3186
    endloop
  endfacet
  facet normal 0.0435959 -0.0261822 0.998706
    outer loop
      vertex -63.5 63.5 20.9663
      vertex -41.1732 37.3107 19.3051
      vertex -41.2474 37.7021 19.3186
    endloop
  endfacet
  facet normal 0.0435694 -0.0262048 0.998707
    outer loop
      vertex -63.5 63.5 20.9663
      vertex -41.0505 36.9316 19.2898
      vertex -41.1732 37.3107 19.3051
    endloop
  endfacet
  facet normal 0.0431706 -0.0265423 0.998715
    outer loop
      vertex -63.5 63.5 20.9663
      vertex -40.8813 36.5709 19.2729
      vertex -41.0505 36.9316 19.2898
    endloop
  endfacet
  facet normal 0.0436047 -0.0261771 0.998706
    outer loop
      vertex -63.5 -63.5 17.6375
      vertex -40.8813 36.5709 19.2729
      vertex -63.5 63.5 20.9663
    endloop
  endfacet
  facet normal 0.0435363 -0.0261617 0.998709
    outer loop
      vertex -40.8813 36.5709 19.2729
      vertex -63.5 -63.5 17.6375
      vertex -40.6683 36.2344 19.2548
    endloop
  endfacet
  facet normal 0.0436041 -0.0261766 0.998706
    outer loop
      vertex -36.4034 35.4202 19.0472
      vertex -63.5 -63.5 17.6375
      vertex 63.5 -63.5 12.0926
    endloop
  endfacet
  facet normal 0.0435372 -0.0261619 0.998709
    outer loop
      vertex -40.6683 36.2344 19.2548
      vertex -63.5 -63.5 17.6375
      vertex -40.4147 35.9273 19.2357
    endloop
  endfacet
  facet normal -0.0435676 0.0261774 -0.998707
    outer loop
      vertex 41.272 -38.1 13.7298
      vertex 41.1714 -38.8893 13.7135
      vertex 41.2474 -37.7022 13.7413
    endloop
  endfacet
  facet normal 0.997142 0.0628744 -0.0418901
    outer loop
      vertex 41.272 -38.1 13.7298
      vertex 41.2474 -37.7022 13.7413
      vertex 41.5489 -38.2662 20.0716
    endloop
  endfacet
  facet normal 0.997 -0.062854 -0.0451789
    outer loop
      vertex 41.5489 -38.2662 20.0716
      vertex 41.2465 -38.4978 13.7205
      vertex 41.272 -38.1 13.7298
    endloop
  endfacet
  facet normal 0.981562 0.187341 -0.0379479
    outer loop
      vertex 41.2474 -37.7022 13.7413
      vertex 41.1732 -37.3107 13.7548
      vertex 41.4501 -37.4769 20.0966
    endloop
  endfacet
  facet normal -0.0436173 0.026901 -0.998686
    outer loop
      vertex 37.8972 -41.2676 13.7941
      vertex 37.5021 -41.2177 13.8127
      vertex 38.2956 -41.2676 13.7767
    endloop
  endfacet
  facet normal 0.0436099 -0.026158 0.998706
    outer loop
      vertex 38.5797 -35.0986 20.2842
      vertex 35.2049 -38.2662 20.3486
      vertex 41.4483 -39.0555 20.0553
    endloop
  endfacet
  facet normal 0.949826 -0.308825 -0.0495654
    outer loop
      vertex 41.3248 -39.4346 20.0507
      vertex 41.1714 -38.8893 13.7135
      vertex 41.4483 -39.0555 20.0553
    endloop
  endfacet
  facet normal 0.981562 0.187341 -0.0379479
    outer loop
      vertex 41.5243 -37.8684 20.0831
      vertex 41.2474 -37.7022 13.7413
      vertex 41.4501 -37.4769 20.0966
    endloop
  endfacet
  facet normal -0.0420926 0.027057 -0.998747
    outer loop
      vertex 35.3186 -39.629 13.9496
      vertex 35.1494 -39.2684 13.9665
      vertex 35.5317 -39.9656 13.9315
    endloop
  endfacet
  facet normal -0.0436046 0.0261832 -0.998706
    outer loop
      vertex 38.6979 -34.9823 13.9239
      vertex 36.4034 -35.4202 14.0126
      vertex 37.5092 -34.9823 13.9758
    endloop
  endfacet
  facet normal 0.482205 0.876056 0.00190451
    outer loop
      vertex 39.8027 -35.4202 13.8642
      vertex 39.7307 -35.3944 20.2262
      vertex 40.0796 -35.5864 20.206
    endloop
  endfacet
  facet normal -0.24732 0.968258 0.0361739
    outer loop
      vertex 37.5092 -34.9823 13.9758
      vertex 37.1233 -35.0814 13.99
      vertex 37.7861 -35.1485 20.3176
    endloop
  endfacet
  facet normal 0.0436905 -0.0263787 0.998697
    outer loop
      vertex 37.7861 -35.1485 20.3176
      vertex 37.0296 -35.3944 20.3442
      vertex 38.5797 -35.0986 20.2842
    endloop
  endfacet
  facet normal 0.997142 0.0628744 -0.0418901
    outer loop
      vertex 41.5489 -38.2662 20.0716
      vertex 41.2474 -37.7022 13.7413
      vertex 41.5243 -37.8684 20.0831
    endloop
  endfacet
  facet normal -0.0440064 0.0256241 -0.998703
    outer loop
      vertex 36.3973 -40.7798 13.8724
      vertex 36.0753 -40.5455 13.8926
      vertex 36.7462 -40.9718 13.8521
    endloop
  endfacet
  facet normal -0.981131 0.187353 0.0477488
    outer loop
      vertex 35.0286 -37.3107 14.0231
      vertex 34.9535 -37.7022 14.0161
      vertex 35.3055 -37.4769 20.3649
    endloop
  endfacet
  facet normal 0.0435258 -0.026285 0.998706
    outer loop
      vertex 40.4016 -35.8207 20.1858
      vertex 40.0796 -35.5864 20.206
      vertex 41.1583 -36.7372 20.1287
    endloop
  endfacet
  facet normal -0.0436565 0.0264393 -0.998697
    outer loop
      vertex 39.0767 -41.1186 13.7465
      vertex 38.2956 -41.2676 13.7767
      vertex 39.7966 -40.7798 13.724
    endloop
  endfacet
  facet normal 0.683121 -0.728664 -0.0489345
    outer loop
      vertex 40.396 -40.7118 20.0578
      vertex 40.1191 -40.5455 13.716
      vertex 40.6867 -40.4389 20.0523
    endloop
  endfacet
  facet normal -0.0437474 0.0263038 -0.998696
    outer loop
      vertex 40.6641 -39.9656 13.7074
      vertex 40.1191 -40.5455 13.716
      vertex 40.8779 -39.629 13.7069
    endloop
  endfacet
  facet normal -0.0414612 0.0253631 -0.998818
    outer loop
      vertex 41.0479 -39.2684 13.709
      vertex 40.8779 -39.629 13.7069
      vertex 41.1714 -38.8893 13.7135
    endloop
  endfacet
  facet normal 0.950554 0.308755 -0.0334122
    outer loop
      vertex 41.4501 -37.4769 20.0966
      vertex 41.0506 -36.9316 13.7701
      vertex 41.3275 -37.0978 20.1119
    endloop
  endfacet
  facet normal 0.0436771 -0.0261705 0.998703
    outer loop
      vertex 41.5243 -37.8684 20.0831
      vertex 41.3275 -37.0978 20.1119
      vertex 41.5489 -38.2662 20.0716
    endloop
  endfacet
  facet normal -0.0435896 0.0262055 -0.998706
    outer loop
      vertex 36.7462 -40.9718 13.8521
      vertex 34.9526 -38.4978 13.9953
      vertex 39.7966 -40.7798 13.724
    endloop
  endfacet
  facet normal 0.844135 0.535645 -0.0228195
    outer loop
      vertex 40.8814 -36.571 13.7869
      vertex 40.6683 -36.2344 13.805
      vertex 40.9452 -36.4006 20.1468
    endloop
  endfacet
  facet normal 0.0440783 -0.0268262 0.998668
    outer loop
      vertex 40.6867 -40.4389 20.0523
      vertex 39.7242 -41.1381 20.076
      vertex 40.396 -40.7118 20.0578
    endloop
  endfacet
  facet normal -0.586374 0.808687 0.046796
    outer loop
      vertex 36.4034 -35.4202 14.0126
      vertex 36.0809 -35.6545 14.0205
      vertex 36.3578 -35.8207 20.3623
    endloop
  endfacet
  facet normal 0.04338 -0.025987 0.998721
    outer loop
      vertex 35.429 -37.0978 20.3694
      vertex 35.3055 -37.4769 20.3649
      vertex 37.0296 -35.3944 20.3442
    endloop
  endfacet
  facet normal 0.480246 -0.876032 -0.0439409
    outer loop
      vertex 39.7966 -40.7798 13.724
      vertex 39.7242 -41.1381 20.076
      vertex 39.4473 -40.9718 13.7342
    endloop
  endfacet
  facet normal 0.480439 -0.875927 -0.0439327
    outer loop
      vertex 39.7242 -41.1381 20.076
      vertex 39.7966 -40.7798 13.724
      vertex 40.0735 -40.946 20.0658
    endloop
  endfacet
  facet normal -0.0434428 0.0262706 -0.99871
    outer loop
      vertex 35.5317 -39.9656 13.9315
      vertex 34.9526 -38.4978 13.9953
      vertex 36.0753 -40.5455 13.8926
    endloop
  endfacet
  facet normal -0.904467 -0.425602 0.0283377
    outer loop
      vertex 35.4263 -39.4346 20.3083
      vertex 35.1494 -39.2684 13.9665
      vertex 35.5955 -39.7953 20.2914
    endloop
  endfacet
  facet normal -0.0436862 0.0262079 -0.998701
    outer loop
      vertex 40.8779 -39.629 13.7069
      vertex 39.7966 -40.7798 13.724
      vertex 41.2474 -37.7022 13.7413
    endloop
  endfacet
  facet normal 0.0435932 -0.0262049 0.998706
    outer loop
      vertex 39.7242 -41.1381 20.076
      vertex 35.4263 -39.4346 20.3083
      vertex 38.1741 -41.4339 20.1359
    endloop
  endfacet
  facet normal 0.0439085 -0.0259258 0.998699
    outer loop
      vertex 41.1583 -36.7372 20.1287
      vertex 40.0796 -35.5864 20.206
      vertex 41.3275 -37.0978 20.1119
    endloop
  endfacet
  facet normal 0.0435382 -0.026232 0.998707
    outer loop
      vertex 40.0796 -35.5864 20.206
      vertex 38.5797 -35.0986 20.2842
      vertex 41.3275 -37.0978 20.1119
    endloop
  endfacet
  facet normal 0.12418 -0.991762 -0.0314269
    outer loop
      vertex 38.5724 -41.4339 20.1185
      vertex 38.2956 -41.2676 13.7767
      vertex 38.9677 -41.3839 20.1026
    endloop
  endfacet
  facet normal -0.0435063 0.0261735 -0.99871
    outer loop
      vertex 41.1714 -38.8893 13.7135
      vertex 40.8779 -39.629 13.7069
      vertex 41.2474 -37.7022 13.7413
    endloop
  endfacet
  facet normal 0.249749 0.968202 0.0144845
    outer loop
      vertex 39.0836 -35.0814 13.9045
      vertex 38.9748 -35.1485 20.2657
      vertex 39.3605 -35.2477 20.2462
    endloop
  endfacet
  facet normal 0.00113548 0.999657 0.0261489
    outer loop
      vertex 38.3028 -34.9324 13.9425
      vertex 37.9044 -34.9324 13.9598
      vertex 38.5797 -35.0986 20.2842
    endloop
  endfacet
  facet normal -0.0432416 0.0262823 -0.998719
    outer loop
      vertex 41.2474 -37.7022 13.7413
      vertex 40.6683 -36.2344 13.805
      vertex 41.0506 -36.9316 13.7701
    endloop
  endfacet
  facet normal 0.904424 0.425692 -0.0283334
    outer loop
      vertex 41.3275 -37.0978 20.1119
      vertex 40.8814 -36.571 13.7869
      vertex 41.1583 -36.7372 20.1287
    endloop
  endfacet
  facet normal -0.0436006 0.0262242 -0.998705
    outer loop
      vertex 40.6683 -36.2344 13.805
      vertex 36.0809 -35.6545 14.0205
      vertex 38.6979 -34.9823 13.9239
    endloop
  endfacet
  facet normal -0.0436092 0.0261568 -0.998706
    outer loop
      vertex 40.6683 -36.2344 13.805
      vertex 34.9526 -38.4978 13.9953
      vertex 36.0809 -35.6545 14.0205
    endloop
  endfacet
  facet normal -0.123957 0.99179 0.0314042
    outer loop
      vertex 37.9044 -34.9324 13.9598
      vertex 37.5092 -34.9823 13.9758
      vertex 37.7861 -35.1485 20.3176
    endloop
  endfacet
  facet normal 0.043836 -0.0261297 0.998697
    outer loop
      vertex 41.4501 -37.4769 20.0966
      vertex 41.3275 -37.0978 20.1119
      vertex 41.5243 -37.8684 20.0831
    endloop
  endfacet
  facet normal 0.0437578 -0.0261551 0.9987
    outer loop
      vertex 35.4263 -39.4346 20.3083
      vertex 35.2049 -38.2662 20.3486
      vertex 35.3037 -39.0555 20.3236
    endloop
  endfacet
  facet normal -0.0428912 0.0257598 -0.998748
    outer loop
      vertex 35.5359 -36.2344 14.0291
      vertex 35.1521 -36.9316 14.0276
      vertex 35.3221 -36.571 14.0296
    endloop
  endfacet
  facet normal 0.0436174 -0.0261837 0.998705
    outer loop
      vertex 35.3055 -37.4769 20.3649
      vertex 35.2049 -38.2662 20.3486
      vertex 37.0296 -35.3944 20.3442
    endloop
  endfacet
  facet normal -0.0433831 0.0266595 -0.998703
    outer loop
      vertex 37.1164 -41.1186 13.8321
      vertex 36.7462 -40.9718 13.8521
      vertex 37.5021 -41.2177 13.8127
    endloop
  endfacet
  facet normal -0.24951 -0.968264 -0.0144811
    outer loop
      vertex 37.779 -41.3839 20.1545
      vertex 37.1164 -41.1186 13.8321
      vertex 37.5021 -41.2177 13.8127
    endloop
  endfacet
  facet normal -0.0437639 0.0261435 -0.9987
    outer loop
      vertex 35.0268 -38.8893 13.9818
      vertex 34.9526 -38.4978 13.9953
      vertex 35.5317 -39.9656 13.9315
    endloop
  endfacet
  facet normal -0.0434216 0.0259387 -0.99872
    outer loop
      vertex 39.4473 -40.9718 13.7342
      vertex 39.0767 -41.1186 13.7465
      vertex 39.7966 -40.7798 13.724
    endloop
  endfacet
  facet normal -0.0432521 0.0243046 -0.998769
    outer loop
      vertex 38.6908 -41.2177 13.7608
      vertex 38.2956 -41.2676 13.7767
      vertex 39.0767 -41.1186 13.7465
    endloop
  endfacet
  facet normal -0.997142 -0.0628744 0.0418901
    outer loop
      vertex 34.9526 -38.4978 13.9953
      vertex 35.2049 -38.2662 20.3486
      vertex 34.928 -38.1 14.0068
    endloop
  endfacet
  facet normal -0.997142 -0.0628744 0.0418901
    outer loop
      vertex 35.2049 -38.2662 20.3486
      vertex 34.9526 -38.4978 13.9953
      vertex 35.2295 -38.664 20.3371
    endloop
  endfacet
  facet normal 0.904424 0.425692 -0.0283334
    outer loop
      vertex 41.0506 -36.9316 13.7701
      vertex 40.8814 -36.571 13.7869
      vertex 41.3275 -37.0978 20.1119
    endloop
  endfacet
  facet normal 0.0436613 -0.0265641 0.998693
    outer loop
      vertex 39.7242 -41.1381 20.076
      vertex 38.1741 -41.4339 20.1359
      vertex 39.3536 -41.2848 20.0883
    endloop
  endfacet
  facet normal -0.0429965 0.0261052 -0.998734
    outer loop
      vertex 41.2465 -38.4978 13.7205
      vertex 41.1714 -38.8893 13.7135
      vertex 41.272 -38.1 13.7298
    endloop
  endfacet
  facet normal 0.0429965 -0.0261052 0.998734
    outer loop
      vertex 41.5489 -38.2662 20.0716
      vertex 41.4483 -39.0555 20.0553
      vertex 41.5234 -38.664 20.0623
    endloop
  endfacet
  facet normal 0.981131 -0.187353 -0.0477488
    outer loop
      vertex 41.4483 -39.0555 20.0553
      vertex 41.1714 -38.8893 13.7135
      vertex 41.5234 -38.664 20.0623
    endloop
  endfacet
  facet normal -0.368775 -0.929482 -0.00827776
    outer loop
      vertex 36.7462 -40.9718 13.8521
      vertex 37.3932 -41.2848 20.1739
      vertex 37.023 -41.1381 20.1939
    endloop
  endfacet
  facet normal -0.368991 -0.929396 -0.00825144
    outer loop
      vertex 37.3932 -41.2848 20.1739
      vertex 36.7462 -40.9718 13.8521
      vertex 37.1164 -41.1186 13.8321
    endloop
  endfacet
  facet normal -0.0011427 -0.999657 -0.026164
    outer loop
      vertex 38.1741 -41.4339 20.1359
      vertex 37.8972 -41.2676 13.7941
      vertex 38.2956 -41.2676 13.7767
    endloop
  endfacet
  facet normal 0.0428629 -0.0249066 0.99877
    outer loop
      vertex 40.396 -40.7118 20.0578
      vertex 39.7242 -41.1381 20.076
      vertex 40.0735 -40.946 20.0658
    endloop
  endfacet
  facet normal -0.0440888 0.0265866 -0.998674
    outer loop
      vertex 40.1191 -40.5455 13.716
      vertex 39.7966 -40.7798 13.724
      vertex 40.8779 -39.629 13.7069
    endloop
  endfacet
  facet normal 0.043849 -0.0263058 0.998692
    outer loop
      vertex 41.4483 -39.0555 20.0553
      vertex 40.6867 -40.4389 20.0523
      vertex 41.1548 -39.7953 20.0487
    endloop
  endfacet
  facet normal -0.0423272 0.0249676 -0.998792
    outer loop
      vertex 40.4098 -40.2727 13.7105
      vertex 40.1191 -40.5455 13.716
      vertex 40.6641 -39.9656 13.7074
    endloop
  endfacet
  facet normal -0.588176 -0.80872 0.00447441
    outer loop
      vertex 36.3522 -40.7118 20.2344
      vertex 36.0753 -40.5455 13.8926
      vertex 36.3973 -40.7798 13.8724
    endloop
  endfacet
  facet normal -0.0436777 0.0261415 -0.998704
    outer loop
      vertex 36.0753 -40.5455 13.8926
      vertex 34.9526 -38.4978 13.9953
      vertex 36.7462 -40.9718 13.8521
    endloop
  endfacet
  facet normal 0.588176 0.808721 -0.00448713
    outer loop
      vertex 40.1247 -35.6545 13.844
      vertex 39.8027 -35.4202 13.8642
      vertex 40.4016 -35.8207 20.1858
    endloop
  endfacet
  facet normal -0.0437161 0.0260425 -0.998705
    outer loop
      vertex 40.6683 -36.2344 13.805
      vertex 38.6979 -34.9823 13.9239
      vertex 39.4538 -35.2282 13.8844
    endloop
  endfacet
  facet normal -0.0431831 0.0266863 -0.998711
    outer loop
      vertex 40.6683 -36.2344 13.805
      vertex 39.4538 -35.2282 13.8844
      vertex 40.1247 -35.6545 13.844
    endloop
  endfacet
  facet normal 0.844135 0.535645 -0.0228195
    outer loop
      vertex 41.1583 -36.7372 20.1287
      vertex 40.8814 -36.571 13.7869
      vertex 40.9452 -36.4006 20.1468
    endloop
  endfacet
  facet normal 0.950554 0.308755 -0.0334122
    outer loop
      vertex 41.1732 -37.3107 13.7548
      vertex 41.0506 -36.9316 13.7701
      vertex 41.4501 -37.4769 20.0966
    endloop
  endfacet
  facet normal -0.043836 0.0261297 -0.998697
    outer loop
      vertex 41.2474 -37.7022 13.7413
      vertex 41.0506 -36.9316 13.7701
      vertex 41.1732 -37.3107 13.7548
    endloop
  endfacet
  facet normal -0.0433711 0.0232392 -0.998789
    outer loop
      vertex 38.3028 -34.9324 13.9425
      vertex 37.5092 -34.9823 13.9758
      vertex 37.9044 -34.9324 13.9598
    endloop
  endfacet
  facet normal 0.0436192 -0.0252232 0.99873
    outer loop
      vertex 38.1813 -35.0986 20.3016
      vertex 37.7861 -35.1485 20.3176
      vertex 38.5797 -35.0986 20.2842
    endloop
  endfacet
  facet normal 0.0436066 -0.026184 0.998706
    outer loop
      vertex 41.4483 -39.0555 20.0553
      vertex 35.2049 -38.2662 20.3486
      vertex 35.4263 -39.4346 20.3083
    endloop
  endfacet
  facet normal 0.0436585 -0.0262098 0.998703
    outer loop
      vertex 37.0296 -35.3944 20.3442
      vertex 35.2049 -38.2662 20.3486
      vertex 38.5797 -35.0986 20.2842
    endloop
  endfacet
  facet normal -0.903472 0.425649 0.050603
    outer loop
      vertex 35.599 -36.7372 20.3714
      vertex 35.3221 -36.571 14.0296
      vertex 35.429 -37.0978 20.3694
    endloop
  endfacet
  facet normal 0.0434257 -0.02603 0.998718
    outer loop
      vertex 36.3578 -35.8207 20.3623
      vertex 35.429 -37.0978 20.3694
      vertex 37.0296 -35.3944 20.3442
    endloop
  endfacet
  facet normal -0.0435906 0.0261318 -0.998708
    outer loop
      vertex 35.7852 -40.2727 13.9124
      vertex 35.5317 -39.9656 13.9315
      vertex 36.0753 -40.5455 13.8926
    endloop
  endfacet
  facet normal -0.684621 -0.72882 0.0107807
    outer loop
      vertex 36.3522 -40.7118 20.2344
      vertex 35.7852 -40.2727 13.9124
      vertex 36.0753 -40.5455 13.8926
    endloop
  endfacet
  facet normal -0.770569 -0.637131 0.0169478
    outer loop
      vertex 35.8086 -40.1318 20.2733
      vertex 35.5317 -39.9656 13.9315
      vertex 35.7852 -40.2727 13.9124
    endloop
  endfacet
  facet normal 0.0435956 -0.026204 0.998706
    outer loop
      vertex 38.1741 -41.4339 20.1359
      vertex 36.0621 -40.4389 20.2542
      vertex 37.3932 -41.2848 20.1739
    endloop
  endfacet
  facet normal -0.981562 -0.187341 0.0379479
    outer loop
      vertex 35.3037 -39.0555 20.3236
      vertex 34.9526 -38.4978 13.9953
      vertex 35.0268 -38.8893 13.9818
    endloop
  endfacet
  facet normal -0.981562 -0.187341 0.0379479
    outer loop
      vertex 34.9526 -38.4978 13.9953
      vertex 35.3037 -39.0555 20.3236
      vertex 35.2295 -38.664 20.3371
    endloop
  endfacet
  facet normal -0.0436976 0.0261747 -0.998702
    outer loop
      vertex 35.1494 -39.2684 13.9665
      vertex 35.0268 -38.8893 13.9818
      vertex 35.5317 -39.9656 13.9315
    endloop
  endfacet
  facet normal -0.0436107 0.0261607 -0.998706
    outer loop
      vertex 39.7966 -40.7798 13.724
      vertex 34.9526 -38.4978 13.9953
      vertex 40.6683 -36.2344 13.805
    endloop
  endfacet
  facet normal -0.043569 0.0261527 -0.998708
    outer loop
      vertex 41.2474 -37.7022 13.7413
      vertex 39.7966 -40.7798 13.724
      vertex 40.6683 -36.2344 13.805
    endloop
  endfacet
  facet normal 0.247311 -0.968261 -0.0361735
    outer loop
      vertex 38.9677 -41.3839 20.1026
      vertex 38.6908 -41.2177 13.7608
      vertex 39.0767 -41.1186 13.7465
    endloop
  endfacet
  facet normal 0.123965 -0.99179 -0.0314045
    outer loop
      vertex 38.9677 -41.3839 20.1026
      vertex 38.2956 -41.2676 13.7767
      vertex 38.6908 -41.2177 13.7608
    endloop
  endfacet
  facet normal -0.0436463 0.0264029 -0.998698
    outer loop
      vertex 38.6979 -34.9823 13.9239
      vertex 36.0809 -35.6545 14.0205
      vertex 36.4034 -35.4202 14.0126
    endloop
  endfacet
  facet normal -0.247494 0.968213 0.0361917
    outer loop
      vertex 37.7861 -35.1485 20.3176
      vertex 37.1233 -35.0814 13.99
      vertex 37.4001 -35.2477 20.3318
    endloop
  endfacet
  facet normal -0.586374 0.808687 0.046796
    outer loop
      vertex 36.4034 -35.4202 14.0126
      vertex 36.3578 -35.8207 20.3623
      vertex 36.6803 -35.5864 20.3544
    endloop
  endfacet
  facet normal -0.768996 0.637273 0.0502775
    outer loop
      vertex 35.7902 -35.9273 14.0261
      vertex 35.5359 -36.2344 14.0291
      vertex 36.0671 -36.0935 20.3679
    endloop
  endfacet
  facet normal -0.981131 0.187353 0.0477488
    outer loop
      vertex 35.3055 -37.4769 20.3649
      vertex 34.9535 -37.7022 14.0161
      vertex 35.2304 -37.8684 20.3579
    endloop
  endfacet
  facet normal 0.043572 -0.0261855 0.998707
    outer loop
      vertex 41.3275 -37.0978 20.1119
      vertex 38.5797 -35.0986 20.2842
      vertex 41.4483 -39.0555 20.0553
    endloop
  endfacet
  facet normal 0.0436117 -0.026183 0.998705
    outer loop
      vertex 41.5489 -38.2662 20.0716
      vertex 41.3275 -37.0978 20.1119
      vertex 41.4483 -39.0555 20.0553
    endloop
  endfacet
  facet normal 0.769112 -0.637135 -0.0502668
    outer loop
      vertex 40.6867 -40.4389 20.0523
      vertex 40.6641 -39.9656 13.7074
      vertex 40.9409 -40.1318 20.0492
    endloop
  endfacet
  facet normal 0.842989 -0.535522 -0.0508501
    outer loop
      vertex 41.1548 -39.7953 20.0487
      vertex 40.6641 -39.9656 13.7074
      vertex 40.8779 -39.629 13.7069
    endloop
  endfacet
  facet normal 0.981131 -0.187353 -0.0477488
    outer loop
      vertex 41.5234 -38.664 20.0623
      vertex 41.1714 -38.8893 13.7135
      vertex 41.2465 -38.4978 13.7205
    endloop
  endfacet
  facet normal 0.997 -0.062854 -0.0451789
    outer loop
      vertex 41.5234 -38.664 20.0623
      vertex 41.2465 -38.4978 13.7205
      vertex 41.5489 -38.2662 20.0716
    endloop
  endfacet
  facet normal 0.247311 -0.968261 -0.0361735
    outer loop
      vertex 39.3536 -41.2848 20.0883
      vertex 38.9677 -41.3839 20.1026
      vertex 39.0767 -41.1186 13.7465
    endloop
  endfacet
  facet normal -0.00114299 -0.999657 -0.026164
    outer loop
      vertex 38.5724 -41.4339 20.1185
      vertex 38.1741 -41.4339 20.1359
      vertex 38.2956 -41.2676 13.7767
    endloop
  endfacet
  facet normal 0.0432238 -0.0264352 0.998716
    outer loop
      vertex 36.0621 -40.4389 20.2542
      vertex 35.4263 -39.4346 20.3083
      vertex 35.8086 -40.1318 20.2733
    endloop
  endfacet
  facet normal 0.0435988 -0.0261972 0.998706
    outer loop
      vertex 38.1741 -41.4339 20.1359
      vertex 35.4263 -39.4346 20.3083
      vertex 36.0621 -40.4389 20.2542
    endloop
  endfacet
  facet normal -0.126472 -0.991759 -0.0204846
    outer loop
      vertex 38.1741 -41.4339 20.1359
      vertex 37.779 -41.3839 20.1545
      vertex 37.8972 -41.2676 13.7941
    endloop
  endfacet
  facet normal -0.126224 -0.99179 -0.0204806
    outer loop
      vertex 37.779 -41.3839 20.1545
      vertex 37.5021 -41.2177 13.8127
      vertex 37.8972 -41.2676 13.7941
    endloop
  endfacet
  facet normal 0.586365 -0.808694 -0.0467958
    outer loop
      vertex 40.1191 -40.5455 13.716
      vertex 40.0735 -40.946 20.0658
      vertex 39.7966 -40.7798 13.724
    endloop
  endfacet
  facet normal 0.5862 -0.808813 -0.0468045
    outer loop
      vertex 40.0735 -40.946 20.0658
      vertex 40.1191 -40.5455 13.716
      vertex 40.396 -40.7118 20.0578
    endloop
  endfacet
  facet normal 0.0436027 -0.0261702 0.998706
    outer loop
      vertex 41.4483 -39.0555 20.0553
      vertex 39.7242 -41.1381 20.076
      vertex 40.6867 -40.4389 20.0523
    endloop
  endfacet
  facet normal 0.0436059 -0.0261729 0.998706
    outer loop
      vertex 41.4483 -39.0555 20.0553
      vertex 35.4263 -39.4346 20.3083
      vertex 39.7242 -41.1381 20.076
    endloop
  endfacet
  facet normal 0.768988 -0.637283 -0.0502774
    outer loop
      vertex 40.6867 -40.4389 20.0523
      vertex 40.4098 -40.2727 13.7105
      vertex 40.6641 -39.9656 13.7074
    endloop
  endfacet
  facet normal 0.682988 -0.728789 -0.0489205
    outer loop
      vertex 40.6867 -40.4389 20.0523
      vertex 40.1191 -40.5455 13.716
      vertex 40.4098 -40.2727 13.7105
    endloop
  endfacet
  facet normal -0.588012 -0.80884 0.00447686
    outer loop
      vertex 36.6742 -40.946 20.2142
      vertex 36.3522 -40.7118 20.2344
      vertex 36.3973 -40.7798 13.8724
    endloop
  endfacet
  facet normal -0.482206 -0.876056 -0.00192585
    outer loop
      vertex 37.023 -41.1381 20.1939
      vertex 36.3973 -40.7798 13.8724
      vertex 36.7462 -40.9718 13.8521
    endloop
  endfacet
  facet normal 0.24951 0.968264 0.0144811
    outer loop
      vertex 39.0836 -35.0814 13.9045
      vertex 38.6979 -34.9823 13.9239
      vertex 38.9748 -35.1485 20.2657
    endloop
  endfacet
  facet normal 0.482205 0.876056 0.00190451
    outer loop
      vertex 39.8027 -35.4202 13.8642
      vertex 39.4538 -35.2282 13.8844
      vertex 39.7307 -35.3944 20.2262
    endloop
  endfacet
  facet normal -0.0428323 0.0272385 -0.998711
    outer loop
      vertex 40.1247 -35.6545 13.844
      vertex 39.4538 -35.2282 13.8844
      vertex 39.8027 -35.4202 13.8642
    endloop
  endfacet
  facet normal 0.588176 0.808721 -0.00448713
    outer loop
      vertex 40.4016 -35.8207 20.1858
      vertex 39.8027 -35.4202 13.8642
      vertex 40.0796 -35.5864 20.206
    endloop
  endfacet
  facet normal -0.0437808 0.0259859 -0.998703
    outer loop
      vertex 41.0506 -36.9316 13.7701
      vertex 40.6683 -36.2344 13.805
      vertex 40.8814 -36.571 13.7869
    endloop
  endfacet
  facet normal 0.770446 0.63728 -0.0169385
    outer loop
      vertex 40.9452 -36.4006 20.1468
      vertex 40.6683 -36.2344 13.805
      vertex 40.6916 -36.0935 20.1659
    endloop
  endfacet
  facet normal 0.126219 0.991791 0.0204812
    outer loop
      vertex 38.9748 -35.1485 20.2657
      vertex 38.3028 -34.9324 13.9425
      vertex 38.5797 -35.0986 20.2842
    endloop
  endfacet
  facet normal 0.126224 0.99179 0.0204806
    outer loop
      vertex 38.3028 -34.9324 13.9425
      vertex 38.9748 -35.1485 20.2657
      vertex 38.6979 -34.9823 13.9239
    endloop
  endfacet
  facet normal -0.0436037 0.0270081 -0.998684
    outer loop
      vertex 38.6979 -34.9823 13.9239
      vertex 37.5092 -34.9823 13.9758
      vertex 38.3028 -34.9324 13.9425
    endloop
  endfacet
  facet normal 0.00114202 0.999657 0.0261482
    outer loop
      vertex 38.5797 -35.0986 20.2842
      vertex 37.9044 -34.9324 13.9598
      vertex 38.1813 -35.0986 20.3016
    endloop
  endfacet
  facet normal -0.123957 0.99179 0.0314042
    outer loop
      vertex 37.9044 -34.9324 13.9598
      vertex 37.7861 -35.1485 20.3176
      vertex 38.1813 -35.0986 20.3016
    endloop
  endfacet
  facet normal -0.0435613 0.0261286 -0.998709
    outer loop
      vertex 36.0809 -35.6545 14.0205
      vertex 35.1521 -36.9316 14.0276
      vertex 35.5359 -36.2344 14.0291
    endloop
  endfacet
  facet normal -0.043589 0.0261488 -0.998707
    outer loop
      vertex 36.0809 -35.6545 14.0205
      vertex 34.9526 -38.4978 13.9953
      vertex 35.1521 -36.9316 14.0276
    endloop
  endfacet
  facet normal -0.770569 -0.637131 0.0169478
    outer loop
      vertex 35.8086 -40.1318 20.2733
      vertex 35.7852 -40.2727 13.9124
      vertex 36.0621 -40.4389 20.2542
    endloop
  endfacet
  facet normal -0.684753 -0.728695 0.0108012
    outer loop
      vertex 36.0621 -40.4389 20.2542
      vertex 35.7852 -40.2727 13.9124
      vertex 36.3522 -40.7118 20.2344
    endloop
  endfacet
  facet normal -0.950554 -0.308755 0.0334122
    outer loop
      vertex 35.3037 -39.0555 20.3236
      vertex 35.0268 -38.8893 13.9818
      vertex 35.1494 -39.2684 13.9665
    endloop
  endfacet
  facet normal -0.950554 -0.308755 0.0334122
    outer loop
      vertex 35.3037 -39.0555 20.3236
      vertex 35.1494 -39.2684 13.9665
      vertex 35.4263 -39.4346 20.3083
    endloop
  endfacet
  facet normal -0.844135 -0.535645 0.0228195
    outer loop
      vertex 35.8086 -40.1318 20.2733
      vertex 35.3186 -39.629 13.9496
      vertex 35.5317 -39.9656 13.9315
    endloop
  endfacet
  facet normal -0.904422 -0.425698 0.0283265
    outer loop
      vertex 35.5955 -39.7953 20.2914
      vertex 35.1494 -39.2684 13.9665
      vertex 35.3186 -39.629 13.9496
    endloop
  endfacet
  facet normal -0.0435803 0.0260547 -0.99871
    outer loop
      vertex 37.5021 -41.2177 13.8127
      vertex 36.7462 -40.9718 13.8521
      vertex 39.7966 -40.7798 13.724
    endloop
  endfacet
  facet normal -0.0436484 0.0264144 -0.998698
    outer loop
      vertex 38.2956 -41.2676 13.7767
      vertex 37.5021 -41.2177 13.8127
      vertex 39.7966 -40.7798 13.724
    endloop
  endfacet
  facet normal -0.366806 0.929421 0.0403731
    outer loop
      vertex 37.1233 -35.0814 13.99
      vertex 36.7527 -35.2282 14.0024
      vertex 37.0296 -35.3944 20.3442
    endloop
  endfacet
  facet normal -0.043233 0.0252414 -0.998746
    outer loop
      vertex 37.5092 -34.9823 13.9758
      vertex 36.4034 -35.4202 14.0126
      vertex 37.1233 -35.0814 13.99
    endloop
  endfacet
  facet normal -0.366675 0.929473 0.0403776
    outer loop
      vertex 37.1233 -35.0814 13.99
      vertex 37.0296 -35.3944 20.3442
      vertex 37.4001 -35.2477 20.3318
    endloop
  endfacet
  facet normal 0.0428747 -0.0238584 0.998796
    outer loop
      vertex 37.4001 -35.2477 20.3318
      vertex 37.0296 -35.3944 20.3442
      vertex 37.7861 -35.1485 20.3176
    endloop
  endfacet
  facet normal -0.903472 0.425649 0.050603
    outer loop
      vertex 35.3221 -36.571 14.0296
      vertex 35.1521 -36.9316 14.0276
      vertex 35.429 -37.0978 20.3694
    endloop
  endfacet
  facet normal -0.768996 0.637273 0.0502775
    outer loop
      vertex 36.0671 -36.0935 20.3679
      vertex 35.5359 -36.2344 14.0291
      vertex 35.8128 -36.4006 20.3709
    endloop
  endfacet
  facet normal -0.682979 0.728798 0.0489204
    outer loop
      vertex 36.3578 -35.8207 20.3623
      vertex 35.7902 -35.9273 14.0261
      vertex 36.0671 -36.0935 20.3679
    endloop
  endfacet
  facet normal -0.0452286 0.0276974 -0.998593
    outer loop
      vertex 36.0809 -35.6545 14.0205
      vertex 35.5359 -36.2344 14.0291
      vertex 35.7902 -35.9273 14.0261
    endloop
  endfacet
  facet normal -0.0448063 0.0264508 -0.998645
    outer loop
      vertex 35.1521 -36.9316 14.0276
      vertex 34.9535 -37.7022 14.0161
      vertex 35.0286 -37.3107 14.0231
    endloop
  endfacet
  facet normal -0.043672 0.0261593 -0.998703
    outer loop
      vertex 35.1521 -36.9316 14.0276
      vertex 34.9526 -38.4978 13.9953
      vertex 34.9535 -37.7022 14.0161
    endloop
  endfacet
  facet normal 0.0452135 -0.0268465 0.998617
    outer loop
      vertex 41.4483 -39.0555 20.0553
      vertex 41.1548 -39.7953 20.0487
      vertex 41.3248 -39.4346 20.0507
    endloop
  endfacet
  facet normal 0.903517 -0.425552 -0.0506092
    outer loop
      vertex 41.1548 -39.7953 20.0487
      vertex 40.8779 -39.629 13.7069
      vertex 41.3248 -39.4346 20.0507
    endloop
  endfacet
  facet normal 0.842805 -0.535814 -0.0508279
    outer loop
      vertex 40.9409 -40.1318 20.0492
      vertex 40.6641 -39.9656 13.7074
      vertex 41.1548 -39.7953 20.0487
    endloop
  endfacet
  facet normal 0.0447558 -0.0269657 0.998634
    outer loop
      vertex 41.1548 -39.7953 20.0487
      vertex 40.6867 -40.4389 20.0523
      vertex 40.9409 -40.1318 20.0492
    endloop
  endfacet
  facet normal 0.0436289 -0.0263054 0.998701
    outer loop
      vertex 39.3536 -41.2848 20.0883
      vertex 38.1741 -41.4339 20.1359
      vertex 38.5724 -41.4339 20.1185
    endloop
  endfacet
  facet normal 0.0432427 -0.0242678 0.99877
    outer loop
      vertex 39.3536 -41.2848 20.0883
      vertex 38.5724 -41.4339 20.1185
      vertex 38.9677 -41.3839 20.1026
    endloop
  endfacet
  facet normal 0.366816 -0.929417 -0.0403735
    outer loop
      vertex 39.4473 -40.9718 13.7342
      vertex 39.3536 -41.2848 20.0883
      vertex 39.0767 -41.1186 13.7465
    endloop
  endfacet
  facet normal 0.366598 -0.929503 -0.0403809
    outer loop
      vertex 39.3536 -41.2848 20.0883
      vertex 39.4473 -40.9718 13.7342
      vertex 39.7242 -41.1381 20.076
    endloop
  endfacet
  facet normal 0.0435303 -0.0263068 0.998706
    outer loop
      vertex 37.3932 -41.2848 20.1739
      vertex 36.0621 -40.4389 20.2542
      vertex 37.023 -41.1381 20.1939
    endloop
  endfacet
  facet normal 0.0439173 -0.0257747 0.998703
    outer loop
      vertex 37.023 -41.1381 20.1939
      vertex 36.0621 -40.4389 20.2542
      vertex 36.3522 -40.7118 20.2344
    endloop
  endfacet
  facet normal 0.0431631 -0.0284867 0.998662
    outer loop
      vertex 38.9748 -35.1485 20.2657
      vertex 38.5797 -35.0986 20.2842
      vertex 39.3605 -35.2477 20.2462
    endloop
  endfacet
  facet normal 0.0437586 -0.0255556 0.998715
    outer loop
      vertex 39.7307 -35.3944 20.2262
      vertex 38.5797 -35.0986 20.2842
      vertex 40.0796 -35.5864 20.206
    endloop
  endfacet
  facet normal 0.0452591 -0.0247375 0.998669
    outer loop
      vertex 40.6916 -36.0935 20.1659
      vertex 40.4016 -35.8207 20.1858
      vertex 40.9452 -36.4006 20.1468
    endloop
  endfacet
  facet normal 0.0442391 -0.025695 0.99869
    outer loop
      vertex 40.9452 -36.4006 20.1468
      vertex 40.4016 -35.8207 20.1858
      vertex 41.1583 -36.7372 20.1287
    endloop
  endfacet
  facet normal 0.684743 0.728704 -0.0108005
    outer loop
      vertex 40.6916 -36.0935 20.1659
      vertex 40.1247 -35.6545 13.844
      vertex 40.4016 -35.8207 20.1858
    endloop
  endfacet
  facet normal -0.0422248 0.0275857 -0.998727
    outer loop
      vertex 40.6683 -36.2344 13.805
      vertex 40.1247 -35.6545 13.844
      vertex 40.4148 -35.9273 13.8242
    endloop
  endfacet
  facet normal 0.0435951 -0.0261757 0.998706
    outer loop
      vertex 35.3037 -39.0555 20.3236
      vertex 35.2049 -38.2662 20.3486
      vertex 35.2295 -38.664 20.3371
    endloop
  endfacet
  facet normal -0.844063 -0.535758 0.022805
    outer loop
      vertex 35.5955 -39.7953 20.2914
      vertex 35.3186 -39.629 13.9496
      vertex 35.8086 -40.1318 20.2733
    endloop
  endfacet
  facet normal 0.0421871 -0.027005 0.998745
    outer loop
      vertex 35.8086 -40.1318 20.2733
      vertex 35.4263 -39.4346 20.3083
      vertex 35.5955 -39.7953 20.2914
    endloop
  endfacet
  facet normal 0.0439053 -0.0245887 0.998733
    outer loop
      vertex 38.1741 -41.4339 20.1359
      vertex 37.3932 -41.2848 20.1739
      vertex 37.779 -41.3839 20.1545
    endloop
  endfacet
  facet normal -0.249449 -0.968279 -0.0144881
    outer loop
      vertex 37.3932 -41.2848 20.1739
      vertex 37.1164 -41.1186 13.8321
      vertex 37.779 -41.3839 20.1545
    endloop
  endfacet
  facet normal -0.480247 0.876033 0.0439271
    outer loop
      vertex 37.0296 -35.3944 20.3442
      vertex 36.4034 -35.4202 14.0126
      vertex 36.6803 -35.5864 20.3544
    endloop
  endfacet
  facet normal -0.682979 0.728798 0.0489204
    outer loop
      vertex 36.0809 -35.6545 14.0205
      vertex 35.7902 -35.9273 14.0261
      vertex 36.3578 -35.8207 20.3623
    endloop
  endfacet
  facet normal -0.0443823 0.0276912 -0.998631
    outer loop
      vertex 37.1233 -35.0814 13.99
      vertex 36.4034 -35.4202 14.0126
      vertex 36.7527 -35.2282 14.0024
    endloop
  endfacet
  facet normal -0.480247 0.876033 0.0439271
    outer loop
      vertex 36.7527 -35.2282 14.0024
      vertex 36.4034 -35.4202 14.0126
      vertex 37.0296 -35.3944 20.3442
    endloop
  endfacet
  facet normal 0.0437686 -0.0265717 0.998688
    outer loop
      vertex 36.6803 -35.5864 20.3544
      vertex 36.3578 -35.8207 20.3623
      vertex 37.0296 -35.3944 20.3442
    endloop
  endfacet
  facet normal -0.84299 0.535522 0.0508416
    outer loop
      vertex 35.5359 -36.2344 14.0291
      vertex 35.3221 -36.571 14.0296
      vertex 35.599 -36.7372 20.3714
    endloop
  endfacet
  facet normal -0.949823 0.308837 0.0495655
    outer loop
      vertex 35.0286 -37.3107 14.0231
      vertex 35.429 -37.0978 20.3694
      vertex 35.1521 -36.9316 14.0276
    endloop
  endfacet
  facet normal -0.949823 0.308837 0.0495655
    outer loop
      vertex 35.429 -37.0978 20.3694
      vertex 35.0286 -37.3107 14.0231
      vertex 35.3055 -37.4769 20.3649
    endloop
  endfacet
  facet normal -0.997 0.062854 0.0451789
    outer loop
      vertex 34.9535 -37.7022 14.0161
      vertex 34.928 -38.1 14.0068
      vertex 35.2049 -38.2662 20.3486
    endloop
  endfacet
  facet normal -0.0438549 0.0261593 -0.998695
    outer loop
      vertex 34.9526 -38.4978 13.9953
      vertex 34.928 -38.1 14.0068
      vertex 34.9535 -37.7022 14.0161
    endloop
  endfacet
  facet normal -0.997 0.062854 0.0451789
    outer loop
      vertex 35.2304 -37.8684 20.3579
      vertex 34.9535 -37.7022 14.0161
      vertex 35.2049 -38.2662 20.3486
    endloop
  endfacet
  facet normal 0.0429965 -0.0261052 0.998734
    outer loop
      vertex 35.2304 -37.8684 20.3579
      vertex 35.2049 -38.2662 20.3486
      vertex 35.3055 -37.4769 20.3649
    endloop
  endfacet
  facet normal 0.949823 -0.308837 -0.0495663
    outer loop
      vertex 41.3248 -39.4346 20.0507
      vertex 41.0479 -39.2684 13.709
      vertex 41.1714 -38.8893 13.7135
    endloop
  endfacet
  facet normal 0.903478 -0.425638 -0.0506038
    outer loop
      vertex 41.3248 -39.4346 20.0507
      vertex 40.8779 -39.629 13.7069
      vertex 41.0479 -39.2684 13.709
    endloop
  endfacet
  facet normal -0.482503 -0.875892 -0.00188717
    outer loop
      vertex 36.6742 -40.946 20.2142
      vertex 36.3973 -40.7798 13.8724
      vertex 37.023 -41.1381 20.1939
    endloop
  endfacet
  facet normal 0.0440033 -0.0256394 0.998702
    outer loop
      vertex 37.023 -41.1381 20.1939
      vertex 36.3522 -40.7118 20.2344
      vertex 36.6742 -40.946 20.2142
    endloop
  endfacet
  facet normal 0.368993 0.929396 0.00824554
    outer loop
      vertex 39.4538 -35.2282 13.8844
      vertex 39.0836 -35.0814 13.9045
      vertex 39.7307 -35.3944 20.2262
    endloop
  endfacet
  facet normal -0.0428853 0.028591 -0.998671
    outer loop
      vertex 39.4538 -35.2282 13.8844
      vertex 38.6979 -34.9823 13.9239
      vertex 39.0836 -35.0814 13.9045
    endloop
  endfacet
  facet normal 0.684621 0.72882 -0.0107815
    outer loop
      vertex 40.4148 -35.9273 13.8242
      vertex 40.1247 -35.6545 13.844
      vertex 40.6916 -36.0935 20.1659
    endloop
  endfacet
  facet normal 0.770567 0.637134 -0.0169357
    outer loop
      vertex 40.6683 -36.2344 13.805
      vertex 40.4148 -35.9273 13.8242
      vertex 40.6916 -36.0935 20.1659
    endloop
  endfacet
  facet normal 0.0435613 -0.0261286 0.998709
    outer loop
      vertex 35.8128 -36.4006 20.3709
      vertex 35.429 -37.0978 20.3694
      vertex 36.3578 -35.8207 20.3623
    endloop
  endfacet
  facet normal 0.0452286 -0.0276974 0.998593
    outer loop
      vertex 36.0671 -36.0935 20.3679
      vertex 35.8128 -36.4006 20.3709
      vertex 36.3578 -35.8207 20.3623
    endloop
  endfacet
  facet normal 0.0436293 -0.0260571 0.998708
    outer loop
      vertex 39.3605 -35.2477 20.2462
      vertex 38.5797 -35.0986 20.2842
      vertex 39.7307 -35.3944 20.2262
    endloop
  endfacet
  facet normal 0.368775 0.929482 0.00827209
    outer loop
      vertex 39.7307 -35.3944 20.2262
      vertex 39.0836 -35.0814 13.9045
      vertex 39.3605 -35.2477 20.2462
    endloop
  endfacet
  facet normal -0.84299 0.535522 0.0508416
    outer loop
      vertex 35.8128 -36.4006 20.3709
      vertex 35.5359 -36.2344 14.0291
      vertex 35.599 -36.7372 20.3714
    endloop
  endfacet
  facet normal 0.0428912 -0.0257598 0.998748
    outer loop
      vertex 35.599 -36.7372 20.3714
      vertex 35.429 -37.0978 20.3694
      vertex 35.8128 -36.4006 20.3709
    endloop
  endfacet
  facet normal 0.981553 0.187387 -0.0379369
    outer loop
      vertex -34.9525 38.4978 19.0646
      vertex -35.0267 38.8892 19.0781
      vertex -34.6757 38.3316 25.4054
    endloop
  endfacet
  facet normal 0.0436141 -0.0262417 0.998704
    outer loop
      vertex -36.4693 40.8056 25.5486
      vertex -40.771 39.1022 25.6917
      vertex -35.7984 40.3793 25.5081
    endloop
  endfacet
  facet normal 0.043672 -0.0261593 0.998703
    outer loop
      vertex -34.6757 38.3316 25.4054
      vertex -34.8752 36.7654 25.3731
      vertex -34.6766 37.536 25.3846
    endloop
  endfacet
  facet normal 0.997158 0.0626246 -0.0418883
    outer loop
      vertex -34.928 38.1 19.0531
      vertex -34.9525 38.4978 19.0646
      vertex -34.6757 38.3316 25.4054
    endloop
  endfacet
  facet normal -0.368774 -0.929482 -0.00825864
    outer loop
      vertex -39.0837 35.0814 19.1554
      vertex -38.8068 34.9152 25.4962
      vertex -39.177 35.0619 25.5162
    endloop
  endfacet
  facet normal 0 -0.999657 -0.0262022
    outer loop
      vertex -38.8068 34.9152 25.4962
      vertex -39.0837 35.0814 19.1554
      vertex -39.0836 35.0814 19.1554
    endloop
  endfacet
  facet normal 0.949827 -0.308825 -0.0495582
    outer loop
      vertex -34.7517 37.1445 25.3776
      vertex -35.152 36.9316 19.0322
      vertex -35.0285 37.3107 19.0368
    endloop
  endfacet
  facet normal -0.999048 0 0.043628
    outer loop
      vertex -41.2474 37.7021 19.3186
      vertex -40.9705 37.536 25.6594
      vertex -41.2474 37.7022 19.3186
    endloop
  endfacet
  facet normal -0.981561 -0.187342 0.0379569
    outer loop
      vertex -40.9705 37.536 25.6594
      vertex -41.2474 37.7021 19.3186
      vertex -40.8963 37.1445 25.6459
    endloop
  endfacet
  facet normal 0.0463852 -0.0276828 0.99854
    outer loop
      vertex -40.601 39.4628 25.6938
      vertex -40.771 39.1022 25.6917
      vertex -40.3872 39.7994 25.6932
    endloop
  endfacet
  facet normal 0.126225 0.99179 0.0204855
    outer loop
      vertex -37.8971 41.2676 19.2657
      vertex -37.6203 41.1014 25.6066
      vertex -37.2252 41.0515 25.588
    endloop
  endfacet
  facet normal 0 0.999657 0.0262018
    outer loop
      vertex -37.6203 41.1014 25.6066
      vertex -37.8971 41.2676 19.2657
      vertex -37.8972 41.2676 19.2657
    endloop
  endfacet
  facet normal -0.770446 -0.63728 0.0169412
    outer loop
      vertex -40.3914 36.0682 25.5956
      vertex -40.6683 36.2344 19.2548
      vertex -40.4147 35.9273 19.2357
    endloop
  endfacet
  facet normal 0.0435991 -0.026187 0.998706
    outer loop
      vertex -34.6757 38.3316 25.4054
      vertex -40.771 39.1022 25.6917
      vertex -35.804 35.4882 25.3801
    endloop
  endfacet
  facet normal -0.981131 0.187353 0.0477563
    outer loop
      vertex -41.2465 38.4978 19.3394
      vertex -40.8945 38.7231 25.6872
      vertex -41.1714 38.8893 19.3464
    endloop
  endfacet
  facet normal -0.981131 0.187353 0.0477563
    outer loop
      vertex -40.8945 38.7231 25.6872
      vertex -41.2465 38.4978 19.3394
      vertex -40.9696 38.3316 25.6802
    endloop
  endfacet
  facet normal 0.588176 0.80872 -0.00447859
    outer loop
      vertex -36.3972 40.7798 19.1875
      vertex -36.1204 40.6136 25.5283
      vertex -35.7984 40.3793 25.5081
    endloop
  endfacet
  facet normal 0 0.999657 0.0262022
    outer loop
      vertex -36.1204 40.6136 25.5283
      vertex -36.3972 40.7798 19.1875
      vertex -36.3973 40.7798 19.1875
    endloop
  endfacet
  facet normal -0.768996 0.637273 0.0502733
    outer loop
      vertex -40.664 39.9656 19.3524
      vertex -40.1329 40.1065 25.6902
      vertex -40.4097 40.2727 19.3494
    endloop
  endfacet
  facet normal -0.768996 0.637273 0.0502733
    outer loop
      vertex -40.1329 40.1065 25.6902
      vertex -40.664 39.9656 19.3524
      vertex -40.3872 39.7994 25.6932
    endloop
  endfacet
  facet normal 0.842804 -0.535814 -0.0508359
    outer loop
      vertex -35.5359 36.2344 19.0307
      vertex -35.0452 36.4047 25.371
      vertex -35.2591 36.0682 25.3715
    endloop
  endfacet
  facet normal 0.480342 -0.87598 -0.0439361
    outer loop
      vertex -36.1265 35.254 25.3881
      vertex -36.7526 35.2282 19.0575
      vertex -36.4034 35.4202 19.0472
    endloop
  endfacet
  facet normal 0.903472 -0.425649 -0.050611
    outer loop
      vertex -35.0452 36.4047 25.371
      vertex -35.3221 36.5709 19.0302
      vertex -35.1521 36.9315 19.0322
    endloop
  endfacet
  facet normal 0.247311 -0.968261 -0.0361792
    outer loop
      vertex -37.1233 35.0814 19.0698
      vertex -36.8464 34.9152 25.4106
      vertex -37.2323 34.8161 25.4249
    endloop
  endfacet
  facet normal 0 -0.999657 -0.0262022
    outer loop
      vertex -36.8464 34.9152 25.4106
      vertex -37.1233 35.0814 19.0698
      vertex -37.1232 35.0814 19.0698
    endloop
  endfacet
  facet normal -0.997015 0.0626204 0.0451648
    outer loop
      vertex -41.2465 38.4977 19.3394
      vertex -41.2719 38.1 19.3301
      vertex -40.9951 37.9338 25.6709
    endloop
  endfacet
  facet normal 0.0437297 -0.026157 0.998701
    outer loop
      vertex -34.8725 39.1022 25.4342
      vertex -35.2548 39.7994 25.4692
      vertex -34.6757 38.3316 25.4054
    endloop
  endfacet
  facet normal 0.950555 0.308755 -0.0333976
    outer loop
      vertex -34.7499 38.7231 25.4189
      vertex -35.0267 38.8894 19.0781
      vertex -34.8725 39.1022 25.4342
    endloop
  endfacet
  facet normal 0.999049 0 -0.0436123
    outer loop
      vertex -35.0267 38.8894 19.0781
      vertex -34.7499 38.7231 25.4189
      vertex -35.0267 38.8893 19.0781
    endloop
  endfacet
  facet normal -0.249449 -0.968279 -0.0144904
    outer loop
      vertex -39.0836 35.0814 19.1554
      vertex -38.421 34.8161 25.4768
      vertex -38.8068 34.9152 25.4962
    endloop
  endfacet
  facet normal -0.24951 -0.968264 -0.0144834
    outer loop
      vertex -38.421 34.8161 25.4768
      vertex -39.0836 35.0814 19.1554
      vertex -38.6979 34.9823 19.136
    endloop
  endfacet
  facet normal -0.844177 -0.53558 0.022813
    outer loop
      vertex -40.6045 36.4047 25.6138
      vertex -40.8813 36.5709 19.2729
      vertex -40.6683 36.2344 19.2548
    endloop
  endfacet
  facet normal 0.768988 -0.637283 -0.0502732
    outer loop
      vertex -35.2591 36.0682 25.3715
      vertex -35.7902 35.9273 19.0338
      vertex -35.5359 36.2344 19.0307
    endloop
  endfacet
  facet normal 0.769111 -0.637134 -0.0502868
    outer loop
      vertex -35.7902 35.9273 19.0338
      vertex -35.2591 36.0682 25.3715
      vertex -35.5133 35.7611 25.3746
    endloop
  endfacet
  facet normal 0.24732 -0.968258 -0.036179
    outer loop
      vertex -37.2323 34.8161 25.4249
      vertex -37.5092 34.9823 19.084
      vertex -37.1233 35.0814 19.0698
    endloop
  endfacet
  facet normal 0.0448063 -0.0264508 0.998645
    outer loop
      vertex -34.6766 37.536 25.3846
      vertex -34.8752 36.7654 25.3731
      vertex -34.7517 37.1445 25.3776
    endloop
  endfacet
  facet normal 0.981169 -0.187158 -0.0477374
    outer loop
      vertex -34.7517 37.1445 25.3776
      vertex -35.0285 37.3107 19.0368
      vertex -34.9535 37.7021 19.0438
    endloop
  endfacet
  facet normal 0.997142 0.0628746 -0.0418967
    outer loop
      vertex -34.6511 37.9338 25.3939
      vertex -34.928 38.1 19.0531
      vertex -34.6757 38.3316 25.4054
    endloop
  endfacet
  facet normal -0.247486 0.968216 0.0361857
    outer loop
      vertex -38.4139 41.0515 25.6399
      vertex -38.6908 41.2177 19.2991
      vertex -38.7999 40.9523 25.6542
    endloop
  endfacet
  facet normal 0.0436512 -0.0264229 0.998697
    outer loop
      vertex -38.7999 40.9523 25.6542
      vertex -39.5197 40.6136 25.6767
      vertex -38.0187 41.1014 25.624
    endloop
  endfacet
  facet normal 0.684618 0.728822 -0.0107937
    outer loop
      vertex -35.7852 40.2727 19.1474
      vertex -36.0753 40.5455 19.1673
      vertex -35.7984 40.3793 25.5081
    endloop
  endfacet
  facet normal 0.0436484 -0.0264144 0.998698
    outer loop
      vertex -38.0187 41.1014 25.624
      vertex -39.5197 40.6136 25.6767
      vertex -37.2252 41.0515 25.588
    endloop
  endfacet
  facet normal -0.84406 -0.535763 0.0228167
    outer loop
      vertex -40.6683 36.2344 19.2548
      vertex -40.3914 36.0682 25.5956
      vertex -40.6045 36.4047 25.6138
    endloop
  endfacet
  facet normal -0.999048 0 0.043628
    outer loop
      vertex -41.2465 38.4977 19.3394
      vertex -40.9696 38.3316 25.6802
      vertex -41.2465 38.4978 19.3394
    endloop
  endfacet
  facet normal -0.996999 0.0628539 0.045185
    outer loop
      vertex -40.9696 38.3316 25.6802
      vertex -41.2465 38.4977 19.3394
      vertex -40.9951 37.9338 25.6709
    endloop
  endfacet
  facet normal 0.0437329 -0.026167 0.998701
    outer loop
      vertex -40.771 39.1022 25.6917
      vertex -40.9951 37.9338 25.6709
      vertex -40.9705 37.536 25.6594
    endloop
  endfacet
  facet normal -0.84299 0.535522 0.0508364
    outer loop
      vertex -40.8778 39.629 19.3529
      vertex -40.3872 39.7994 25.6932
      vertex -40.664 39.9656 19.3524
    endloop
  endfacet
  facet normal -0.842983 0.535533 0.0508356
    outer loop
      vertex -40.3872 39.7994 25.6932
      vertex -40.8778 39.629 19.3529
      vertex -40.601 39.4628 25.6938
    endloop
  endfacet
  facet normal -0.683104 0.728681 0.0489197
    outer loop
      vertex -40.1191 40.5455 19.3438
      vertex -40.4097 40.2727 19.3494
      vertex -40.1329 40.1065 25.6902
    endloop
  endfacet
  facet normal 0.0435622 -0.0261102 0.998709
    outer loop
      vertex -37.2252 41.0515 25.588
      vertex -40.771 39.1022 25.6917
      vertex -36.4693 40.8056 25.5486
    endloop
  endfacet
  facet normal 0.0455886 -0.0251349 0.998644
    outer loop
      vertex -35.0417 39.4628 25.451
      vertex -35.2548 39.7994 25.4692
      vertex -34.8725 39.1022 25.4342
    endloop
  endfacet
  facet normal 0.043836 -0.0261297 0.998697
    outer loop
      vertex -34.7499 38.7231 25.4189
      vertex -34.8725 39.1022 25.4342
      vertex -34.6757 38.3316 25.4054
    endloop
  endfacet
  facet normal 0.999049 0 -0.0436123
    outer loop
      vertex -34.7499 38.7231 25.4189
      vertex -35.0267 38.8892 19.0781
      vertex -35.0267 38.8893 19.0781
    endloop
  endfacet
  facet normal 0.981562 0.187341 -0.0379414
    outer loop
      vertex -35.0267 38.8892 19.0781
      vertex -34.7499 38.7231 25.4189
      vertex -34.6757 38.3316 25.4054
    endloop
  endfacet
  facet normal 0.706245 -0.706245 -0.049353
    outer loop
      vertex -36.7526 35.2282 19.0575
      vertex -36.4758 35.0619 25.3983
      vertex -36.7527 35.2281 19.0575
    endloop
  endfacet
  facet normal 0.480439 -0.875927 -0.0439459
    outer loop
      vertex -36.4758 35.0619 25.3983
      vertex -36.7526 35.2282 19.0575
      vertex -36.1265 35.254 25.3881
    endloop
  endfacet
  facet normal 0.0439657 -0.0270984 0.998665
    outer loop
      vertex -36.1265 35.254 25.3881
      vertex -37.2323 34.8161 25.4249
      vertex -36.8464 34.9152 25.4106
    endloop
  endfacet
  facet normal 0.999048 0 -0.0436273
    outer loop
      vertex -34.8752 36.7654 25.3731
      vertex -35.1521 36.9315 19.0322
      vertex -35.1521 36.9316 19.0322
    endloop
  endfacet
  facet normal 0.903523 -0.425541 -0.0506029
    outer loop
      vertex -35.1521 36.9315 19.0322
      vertex -34.8752 36.7654 25.3731
      vertex -35.0452 36.4047 25.371
    endloop
  endfacet
  facet normal -0.126466 -0.99176 -0.0204745
    outer loop
      vertex -38.0259 34.7661 25.4582
      vertex -38.6978 34.9823 19.1359
      vertex -38.3027 34.9323 19.1174
    endloop
  endfacet
  facet normal 0.0434258 -0.0257301 0.998725
    outer loop
      vertex -36.1265 35.254 25.3881
      vertex -37.6276 34.7661 25.4408
      vertex -37.2323 34.8161 25.4249
    endloop
  endfacet
  facet normal 0.842917 -0.535635 -0.0508495
    outer loop
      vertex -35.0452 36.4047 25.371
      vertex -35.5359 36.2344 19.0307
      vertex -35.3221 36.5709 19.0302
    endloop
  endfacet
  facet normal 0.949823 -0.308837 -0.0495576
    outer loop
      vertex -34.8752 36.7654 25.3731
      vertex -35.152 36.9316 19.0322
      vertex -34.7517 37.1445 25.3776
    endloop
  endfacet
  facet normal -0 -0.999657 -0.0262018
    outer loop
      vertex -35.152 36.9316 19.0322
      vertex -34.8752 36.7654 25.3731
      vertex -35.1521 36.9316 19.0322
    endloop
  endfacet
  facet normal 0.706245 -0.706245 -0.0493418
    outer loop
      vertex -34.6766 37.536 25.3846
      vertex -34.9535 37.7021 19.0438
      vertex -34.9534 37.7022 19.0438
    endloop
  endfacet
  facet normal 0.981131 -0.187353 -0.0477534
    outer loop
      vertex -34.9535 37.7021 19.0438
      vertex -34.6766 37.536 25.3846
      vertex -34.7517 37.1445 25.3776
    endloop
  endfacet
  facet normal 0.0438549 -0.0261593 0.998695
    outer loop
      vertex -34.6757 38.3316 25.4054
      vertex -34.6766 37.536 25.3846
      vertex -34.6511 37.9338 25.3939
    endloop
  endfacet
  facet normal -0.123965 0.991789 0.0314075
    outer loop
      vertex -38.6907 41.2177 19.2991
      vertex -38.4139 41.0515 25.6399
      vertex -38.0187 41.1014 25.624
    endloop
  endfacet
  facet normal 0 0.999657 0.0262022
    outer loop
      vertex -38.4139 41.0515 25.6399
      vertex -38.6907 41.2177 19.2991
      vertex -38.6908 41.2177 19.2991
    endloop
  endfacet
  facet normal 0.0432568 -0.0243421 0.998767
    outer loop
      vertex -38.4139 41.0515 25.6399
      vertex -38.7999 40.9523 25.6542
      vertex -38.0187 41.1014 25.624
    endloop
  endfacet
  facet normal -0.366684 0.929469 0.040369
    outer loop
      vertex -39.0767 41.1185 19.3133
      vertex -39.1704 40.8056 25.6665
      vertex -38.7999 40.9523 25.6542
    endloop
  endfacet
  facet normal -0.366675 0.929473 0.0403694
    outer loop
      vertex -39.1704 40.8056 25.6665
      vertex -39.0767 41.1185 19.3133
      vertex -39.4472 40.9718 19.3257
    endloop
  endfacet
  facet normal -0.123957 0.99179 0.0314067
    outer loop
      vertex -38.2955 41.2676 19.2831
      vertex -38.6907 41.2177 19.2991
      vertex -38.0187 41.1014 25.624
    endloop
  endfacet
  facet normal -0.480247 0.876033 0.0439265
    outer loop
      vertex -39.4472 40.9718 19.3257
      vertex -39.7965 40.7798 19.3359
      vertex -39.1704 40.8056 25.6665
    endloop
  endfacet
  facet normal -0.480247 0.876033 0.0439265
    outer loop
      vertex -39.7965 40.7798 19.3359
      vertex -39.5197 40.6136 25.6767
      vertex -39.1704 40.8056 25.6665
    endloop
  endfacet
  facet normal 0.770345 0.637403 -0.0169211
    outer loop
      vertex -35.5316 39.9656 19.1283
      vertex -35.7852 40.2726 19.1474
      vertex -35.2548 39.7994 25.4692
    endloop
  endfacet
  facet normal 0.844132 0.53565 -0.0228144
    outer loop
      vertex -35.0417 39.4628 25.451
      vertex -35.3186 39.6291 19.1102
      vertex -35.2548 39.7994 25.4692
    endloop
  endfacet
  facet normal 0.999048 0 -0.043628
    outer loop
      vertex -35.3186 39.6291 19.1102
      vertex -35.0417 39.4628 25.451
      vertex -35.3186 39.629 19.1102
    endloop
  endfacet
  facet normal 0.482311 0.875998 0.00190622
    outer loop
      vertex -36.3973 40.7798 19.1875
      vertex -36.7461 40.9718 19.2077
      vertex -36.4693 40.8056 25.5486
    endloop
  endfacet
  facet normal 0.0434428 -0.0262706 0.99871
    outer loop
      vertex -35.2548 39.7994 25.4692
      vertex -35.7984 40.3793 25.5081
      vertex -34.6757 38.3316 25.4054
    endloop
  endfacet
  facet normal 0.684746 0.728702 -0.0107914
    outer loop
      vertex -35.5084 40.1065 25.4883
      vertex -35.7852 40.2727 19.1474
      vertex -35.7984 40.3793 25.5081
    endloop
  endfacet
  facet normal 0.04312 -0.0258858 0.998734
    outer loop
      vertex -40.3872 39.7994 25.6932
      vertex -40.771 39.1022 25.6917
      vertex -39.8422 40.3793 25.6847
    endloop
  endfacet
  facet normal 0.0436059 -0.0261899 0.998705
    outer loop
      vertex -39.5197 40.6136 25.6767
      vertex -40.771 39.1022 25.6917
      vertex -37.2252 41.0515 25.588
    endloop
  endfacet
  facet normal -0.997142 -0.0628746 0.0418967
    outer loop
      vertex -41.2474 37.7022 19.3186
      vertex -40.9705 37.536 25.6594
      vertex -40.9951 37.9338 25.6709
    endloop
  endfacet
  facet normal -0.997158 -0.0626246 0.0418883
    outer loop
      vertex -40.9951 37.9338 25.6709
      vertex -41.2719 38.1 19.3301
      vertex -41.2474 37.7022 19.3186
    endloop
  endfacet
  facet normal 0.044095 -0.0265952 0.998673
    outer loop
      vertex -39.8422 40.3793 25.6847
      vertex -40.771 39.1022 25.6917
      vertex -39.5197 40.6136 25.6767
    endloop
  endfacet
  facet normal 0.0433778 -0.0258452 0.998724
    outer loop
      vertex -36.1265 35.254 25.3881
      vertex -36.8464 34.9152 25.4106
      vertex -36.4758 35.0619 25.3983
    endloop
  endfacet
  facet normal 0.0439754 -0.0265061 0.998681
    outer loop
      vertex -34.8752 36.7654 25.3731
      vertex -35.804 35.4882 25.3801
      vertex -35.2591 36.0682 25.3715
    endloop
  endfacet
  facet normal 0.0434623 -0.0261328 0.998713
    outer loop
      vertex -34.6757 38.3316 25.4054
      vertex -35.804 35.4882 25.3801
      vertex -34.8752 36.7654 25.3731
    endloop
  endfacet
  facet normal 0.682988 -0.728789 -0.0489282
    outer loop
      vertex -35.804 35.4882 25.3801
      vertex -36.0809 35.6544 19.0393
      vertex -35.7902 35.9272 19.0338
    endloop
  endfacet
  facet normal 0.999998 0 0.00217449
    outer loop
      vertex -35.7902 35.9273 19.0338
      vertex -35.804 35.4882 25.3801
      vertex -35.7902 35.9272 19.0338
    endloop
  endfacet
  facet normal 0.683121 -0.728664 -0.0489308
    outer loop
      vertex -35.804 35.4882 25.3801
      vertex -35.7902 35.9273 19.0338
      vertex -35.5133 35.7611 25.3746
    endloop
  endfacet
  facet normal 0.0436284 -0.0267608 0.998689
    outer loop
      vertex -37.6276 34.7661 25.4408
      vertex -38.421 34.8161 25.4768
      vertex -38.0259 34.7661 25.4582
    endloop
  endfacet
  facet normal -0 -0.999657 -0.0262022
    outer loop
      vertex -37.9043 34.9323 19.1
      vertex -37.6276 34.7661 25.4408
      vertex -37.9044 34.9323 19.1
    endloop
  endfacet
  facet normal 0.124181 -0.991762 -0.0314143
    outer loop
      vertex -37.6276 34.7661 25.4408
      vertex -37.9043 34.9323 19.1
      vertex -37.2323 34.8161 25.4249
    endloop
  endfacet
  facet normal -0.36886 -0.929448 -0.0082598
    outer loop
      vertex -39.177 35.0619 25.5162
      vertex -39.4538 35.2281 19.1754
      vertex -39.0837 35.0814 19.1554
    endloop
  endfacet
  facet normal 0.997 -0.0628542 -0.0451703
    outer loop
      vertex -34.6766 37.536 25.3846
      vertex -34.9534 37.7022 19.0438
      vertex -34.6511 37.9338 25.3939
    endloop
  endfacet
  facet normal 0.997015 -0.0626044 -0.0451802
    outer loop
      vertex -34.6511 37.9338 25.3939
      vertex -34.9534 37.7022 19.0438
      vertex -34.928 38.1 19.0531
    endloop
  endfacet
  facet normal 0.0448063 -0.0264508 0.998645
    outer loop
      vertex -40.8945 38.7231 25.6872
      vertex -40.9696 38.3316 25.6802
      vertex -40.771 39.1022 25.6917
    endloop
  endfacet
  facet normal 0.00114218 0.999657 0.0261519
    outer loop
      vertex -37.6203 41.1014 25.6066
      vertex -38.2955 41.2676 19.2831
      vertex -38.0187 41.1014 25.624
    endloop
  endfacet
  facet normal 0.00114246 0.999657 0.0261519
    outer loop
      vertex -38.2955 41.2676 19.2831
      vertex -37.6203 41.1014 25.6066
      vertex -37.8972 41.2676 19.2657
    endloop
  endfacet
  facet normal 0.0434385 -0.0259694 0.998719
    outer loop
      vertex -39.1704 40.8056 25.6665
      vertex -39.5197 40.6136 25.6767
      vertex -38.7999 40.9523 25.6542
    endloop
  endfacet
  facet normal 0.904424 0.425692 -0.0283379
    outer loop
      vertex -34.8725 39.1022 25.4342
      vertex -35.3186 39.629 19.1102
      vertex -35.0417 39.4628 25.451
    endloop
  endfacet
  facet normal 0.904424 0.425692 -0.0283379
    outer loop
      vertex -35.3186 39.629 19.1102
      vertex -34.8725 39.1022 25.4342
      vertex -35.1494 39.2684 19.0934
    endloop
  endfacet
  facet normal 0.844177 0.53558 -0.022813
    outer loop
      vertex -35.3186 39.6291 19.1102
      vertex -35.5316 39.9656 19.1283
      vertex -35.2548 39.7994 25.4692
    endloop
  endfacet
  facet normal 0.588295 0.808634 -0.00449532
    outer loop
      vertex -36.0753 40.5455 19.1673
      vertex -36.3972 40.7798 19.1875
      vertex -35.7984 40.3793 25.5081
    endloop
  endfacet
  facet normal 0.36886 0.929448 0.00825967
    outer loop
      vertex -36.7462 40.9718 19.2077
      vertex -37.1163 41.1185 19.2277
      vertex -36.8395 40.9523 25.5686
    endloop
  endfacet
  facet normal 0.0437177 -0.0260126 0.998705
    outer loop
      vertex -35.5084 40.1065 25.4883
      vertex -35.7984 40.3793 25.5081
      vertex -35.2548 39.7994 25.4692
    endloop
  endfacet
  facet normal 0.770447 0.63728 -0.0169288
    outer loop
      vertex -35.2548 39.7994 25.4692
      vertex -35.7852 40.2727 19.1474
      vertex -35.5084 40.1065 25.4883
    endloop
  endfacet
  facet normal 0.996499 0 -0.0836064
    outer loop
      vertex -35.7852 40.2727 19.1474
      vertex -35.2548 39.7994 25.4692
      vertex -35.7852 40.2726 19.1474
    endloop
  endfacet
  facet normal 0.0437297 -0.026157 0.998701
    outer loop
      vertex -40.3914 36.0682 25.5956
      vertex -40.9705 37.536 25.6594
      vertex -40.7737 36.7654 25.6306
    endloop
  endfacet
  facet normal 0.043836 -0.0261297 0.998697
    outer loop
      vertex -40.7737 36.7654 25.6306
      vertex -40.9705 37.536 25.6594
      vertex -40.8963 37.1445 25.6459
    endloop
  endfacet
  facet normal -0.588012 -0.80884 0.00446831
    outer loop
      vertex -40.1246 35.6544 19.2159
      vertex -39.5258 35.254 25.5365
      vertex -39.8478 35.4882 25.5567
    endloop
  endfacet
  facet normal 0.0437354 -0.0259915 0.998705
    outer loop
      vertex -38.8068 34.9152 25.4962
      vertex -40.3914 36.0682 25.5956
      vertex -39.8478 35.4882 25.5567
    endloop
  endfacet
  facet normal 0.043449 -0.0265117 0.998704
    outer loop
      vertex -38.8068 34.9152 25.4962
      vertex -39.8478 35.4882 25.5567
      vertex -39.177 35.0619 25.5162
    endloop
  endfacet
  facet normal 0.0437114 -0.0261643 0.998702
    outer loop
      vertex -40.771 39.1022 25.6917
      vertex -40.9705 37.536 25.6594
      vertex -40.3914 36.0682 25.5956
    endloop
  endfacet
  facet normal 0.0436126 -0.026144 0.998706
    outer loop
      vertex -40.9696 38.3316 25.6802
      vertex -40.9951 37.9338 25.6709
      vertex -40.771 39.1022 25.6917
    endloop
  endfacet
  facet normal -0.586365 0.808694 0.0467939
    outer loop
      vertex -39.7965 40.7798 19.3359
      vertex -39.8422 40.3793 25.6847
      vertex -39.5197 40.6136 25.6767
    endloop
  endfacet
  facet normal -0.586255 0.808774 0.0467997
    outer loop
      vertex -39.8422 40.3793 25.6847
      vertex -39.7965 40.7798 19.3359
      vertex -40.1191 40.5455 19.3438
    endloop
  endfacet
  facet normal -0.682988 0.728789 0.0489275
    outer loop
      vertex -39.8422 40.3793 25.6847
      vertex -40.1191 40.5455 19.3438
      vertex -40.1329 40.1065 25.6902
    endloop
  endfacet
  facet normal -0.903376 0.425854 0.0505971
    outer loop
      vertex -41.0479 39.2684 19.3509
      vertex -40.601 39.4628 25.6938
      vertex -40.8778 39.629 19.3529
    endloop
  endfacet
  facet normal -0.903477 0.425637 0.0506109
    outer loop
      vertex -40.601 39.4628 25.6938
      vertex -41.0479 39.2684 19.3509
      vertex -40.771 39.1022 25.6917
    endloop
  endfacet
  facet normal 0.0436921 -0.026424 0.998696
    outer loop
      vertex -40.1329 40.1065 25.6902
      vertex -40.3872 39.7994 25.6932
      vertex -39.8422 40.3793 25.6847
    endloop
  endfacet
  facet normal 0.366684 -0.929469 -0.0403697
    outer loop
      vertex -36.7527 35.2281 19.0575
      vertex -36.8464 34.9152 25.4106
      vertex -37.1232 35.0814 19.0698
    endloop
  endfacet
  facet normal 0.366599 -0.929503 -0.0403726
    outer loop
      vertex -36.8464 34.9152 25.4106
      vertex -36.7527 35.2281 19.0575
      vertex -36.4758 35.0619 25.3983
    endloop
  endfacet
  facet normal 0.0444042 -0.0267421 0.998656
    outer loop
      vertex -34.8752 36.7654 25.3731
      vertex -35.2591 36.0682 25.3715
      vertex -35.0452 36.4047 25.371
    endloop
  endfacet
  facet normal 0.0423078 -0.0249377 0.998793
    outer loop
      vertex -35.2591 36.0682 25.3715
      vertex -35.804 35.4882 25.3801
      vertex -35.5133 35.7611 25.3746
    endloop
  endfacet
  facet normal 0.124234 -0.991755 -0.0314199
    outer loop
      vertex -37.2323 34.8161 25.4249
      vertex -37.9043 34.9323 19.1
      vertex -37.5092 34.9823 19.084
    endloop
  endfacet
  facet normal -0.482503 -0.875892 -0.00188747
    outer loop
      vertex -39.8027 35.4202 19.1957
      vertex -39.177 35.0619 25.5162
      vertex -39.5258 35.254 25.5365
    endloop
  endfacet
  facet normal -0.482398 -0.87595 -0.00190121
    outer loop
      vertex -39.177 35.0619 25.5162
      vertex -39.8027 35.4202 19.1957
      vertex -39.4538 35.2281 19.1754
    endloop
  endfacet
  facet normal 0.12622 0.991791 0.0204861
    outer loop
      vertex -37.502 41.2177 19.2472
      vertex -37.8971 41.2676 19.2657
      vertex -37.2252 41.0515 25.588
    endloop
  endfacet
  facet normal 0.249745 0.968203 0.0144755
    outer loop
      vertex -36.8395 40.9523 25.5686
      vertex -37.502 41.2177 19.2472
      vertex -37.2252 41.0515 25.588
    endloop
  endfacet
  facet normal 0.249748 0.968203 0.0144751
    outer loop
      vertex -37.502 41.2177 19.2472
      vertex -36.8395 40.9523 25.5686
      vertex -37.1163 41.1185 19.2277
    endloop
  endfacet
  facet normal 0.0436173 -0.026901 0.998686
    outer loop
      vertex -37.6203 41.1014 25.6066
      vertex -38.0187 41.1014 25.624
      vertex -37.2252 41.0515 25.588
    endloop
  endfacet
  facet normal 0.0433501 -0.026761 0.998701
    outer loop
      vertex -36.8395 40.9523 25.5686
      vertex -37.2252 41.0515 25.588
      vertex -36.4693 40.8056 25.5486
    endloop
  endfacet
  facet normal 0.368774 0.929482 0.00825851
    outer loop
      vertex -36.4693 40.8056 25.5486
      vertex -36.7462 40.9718 19.2077
      vertex -36.8395 40.9523 25.5686
    endloop
  endfacet
  facet normal -0 0.999657 0.0262018
    outer loop
      vertex -36.7462 40.9718 19.2077
      vertex -36.4693 40.8056 25.5486
      vertex -36.7461 40.9718 19.2077
    endloop
  endfacet
  facet normal -0.247555 0.968198 0.0361838
    outer loop
      vertex -38.6908 41.2177 19.2991
      vertex -39.0767 41.1185 19.3133
      vertex -38.7999 40.9523 25.6542
    endloop
  endfacet
  facet normal 0.950457 0.309056 -0.0334053
    outer loop
      vertex -35.0267 38.8894 19.0781
      vertex -35.1494 39.2684 19.0934
      vertex -34.8725 39.1022 25.4342
    endloop
  endfacet
  facet normal 0.482205 0.876056 0.00190479
    outer loop
      vertex -36.1204 40.6136 25.5283
      vertex -36.3973 40.7798 19.1875
      vertex -36.4693 40.8056 25.5486
    endloop
  endfacet
  facet normal 0.0440064 -0.0256241 0.998703
    outer loop
      vertex -36.1204 40.6136 25.5283
      vertex -36.4693 40.8056 25.5486
      vertex -35.7984 40.3793 25.5081
    endloop
  endfacet
  facet normal 0.0435994 -0.0261845 0.998706
    outer loop
      vertex -35.7984 40.3793 25.5081
      vertex -40.771 39.1022 25.6917
      vertex -34.6757 38.3316 25.4054
    endloop
  endfacet
  facet normal -0.981553 -0.187388 0.0379523
    outer loop
      vertex -40.8963 37.1445 25.6459
      vertex -41.2474 37.7021 19.3186
      vertex -41.1732 37.3107 19.3051
    endloop
  endfacet
  facet normal -0.904467 -0.425602 0.0283274
    outer loop
      vertex -40.6045 36.4047 25.6138
      vertex -41.0505 36.9316 19.2898
      vertex -40.8813 36.5709 19.2729
    endloop
  endfacet
  facet normal -0.90447 -0.425595 0.0283282
    outer loop
      vertex -41.0505 36.9316 19.2898
      vertex -40.6045 36.4047 25.6138
      vertex -40.7737 36.7654 25.6306
    endloop
  endfacet
  facet normal 0.0456764 -0.0250866 0.998641
    outer loop
      vertex -40.3914 36.0682 25.5956
      vertex -40.7737 36.7654 25.6306
      vertex -40.6045 36.4047 25.6138
    endloop
  endfacet
  facet normal -0.588131 -0.808753 0.00448504
    outer loop
      vertex -39.5258 35.254 25.5365
      vertex -40.1246 35.6544 19.2159
      vertex -39.8027 35.4202 19.1957
    endloop
  endfacet
  facet normal -0.770569 -0.637131 0.0169383
    outer loop
      vertex -40.4147 35.9273 19.2357
      vertex -40.1379 35.7611 25.5765
      vertex -40.3914 36.0682 25.5956
    endloop
  endfacet
  facet normal 0.0440033 -0.0256394 0.998702
    outer loop
      vertex -39.177 35.0619 25.5162
      vertex -39.8478 35.4882 25.5567
      vertex -39.5258 35.254 25.5365
    endloop
  endfacet
  facet normal 0.58621 -0.808806 -0.0467986
    outer loop
      vertex -36.0809 35.6544 19.0393
      vertex -36.1265 35.254 25.3881
      vertex -36.4034 35.4202 19.0472
    endloop
  endfacet
  facet normal 0.586201 -0.808813 -0.0467991
    outer loop
      vertex -36.1265 35.254 25.3881
      vertex -36.0809 35.6544 19.0393
      vertex -35.804 35.4882 25.3801
    endloop
  endfacet
  facet normal 0.0435994 -0.0261784 0.998706
    outer loop
      vertex -38.8068 34.9152 25.4962
      vertex -40.771 39.1022 25.6917
      vertex -40.3914 36.0682 25.5956
    endloop
  endfacet
  facet normal -0.00114277 -0.999657 -0.0261523
    outer loop
      vertex -38.0259 34.7661 25.4582
      vertex -38.3027 34.9323 19.1174
      vertex -37.9045 34.9323 19.1
    endloop
  endfacet
  facet normal -0.00114248 -0.999657 -0.0261523
    outer loop
      vertex -37.9045 34.9323 19.1
      vertex -37.6276 34.7661 25.4408
      vertex -38.0259 34.7661 25.4582
    endloop
  endfacet
  facet normal 0 -0.999657 -0.0262022
    outer loop
      vertex -37.6276 34.7661 25.4408
      vertex -37.9045 34.9323 19.1
      vertex -37.9044 34.9323 19.1
    endloop
  endfacet
  facet normal -0.95046 -0.309048 0.0333907
    outer loop
      vertex -40.7737 36.7654 25.6306
      vertex -41.1732 37.3106 19.305
      vertex -41.0505 36.9316 19.2898
    endloop
  endfacet
  facet normal -0.998194 -0.0424773 0.0424773
    outer loop
      vertex -41.1732 37.3106 19.305
      vertex -40.8963 37.1445 25.6459
      vertex -41.1732 37.3107 19.3051
    endloop
  endfacet
  facet normal -0.950554 -0.308756 0.0334218
    outer loop
      vertex -40.8963 37.1445 25.6459
      vertex -41.1732 37.3106 19.305
      vertex -40.7737 36.7654 25.6306
    endloop
  endfacet
  facet normal -0.684621 -0.72882 0.0107831
    outer loop
      vertex -39.8478 35.4882 25.5567
      vertex -40.4147 35.9272 19.2357
      vertex -40.1246 35.6544 19.2159
    endloop
  endfacet
  facet normal -0.684754 -0.728695 0.0107921
    outer loop
      vertex -40.4147 35.9273 19.2357
      vertex -39.8478 35.4882 25.5567
      vertex -40.1379 35.7611 25.5765
    endloop
  endfacet
  facet normal -0.996002 0 0.0893266
    outer loop
      vertex -39.8478 35.4882 25.5567
      vertex -40.4147 35.9273 19.2357
      vertex -40.4147 35.9272 19.2357
    endloop
  endfacet
  facet normal 0.0435504 -0.0261651 0.998709
    outer loop
      vertex -39.8478 35.4882 25.5567
      vertex -40.3914 36.0682 25.5956
      vertex -40.1379 35.7611 25.5765
    endloop
  endfacet
  facet normal -0.0250986 -0.99937 -0.0250986
    outer loop
      vertex -38.6978 34.9823 19.1359
      vertex -38.421 34.8161 25.4768
      vertex -38.6979 34.9823 19.136
    endloop
  endfacet
  facet normal -0.126471 -0.991759 -0.0204739
    outer loop
      vertex -38.421 34.8161 25.4768
      vertex -38.6978 34.9823 19.1359
      vertex -38.0259 34.7661 25.4582
    endloop
  endfacet
  facet normal 0.0436085 -0.0261742 0.998706
    outer loop
      vertex -35.804 35.4882 25.3801
      vertex -40.771 39.1022 25.6917
      vertex -38.8068 34.9152 25.4962
    endloop
  endfacet
  facet normal 0.0433985 -0.0256455 0.998729
    outer loop
      vertex -35.804 35.4882 25.3801
      vertex -37.6276 34.7661 25.4408
      vertex -36.1265 35.254 25.3881
    endloop
  endfacet
  facet normal -0.999048 0 0.043628
    outer loop
      vertex -40.8945 38.7231 25.6872
      vertex -41.1714 38.8894 19.3464
      vertex -41.1714 38.8893 19.3464
    endloop
  endfacet
  facet normal -0.949822 0.308837 0.0495782
    outer loop
      vertex -41.1714 38.8894 19.3464
      vertex -40.8945 38.7231 25.6872
      vertex -40.771 39.1022 25.6917
    endloop
  endfacet
  facet normal -0.949798 0.30891 0.0495742
    outer loop
      vertex -41.0479 39.2684 19.3509
      vertex -41.1714 38.8894 19.3464
      vertex -40.771 39.1022 25.6917
    endloop
  endfacet
  facet normal 0.0436098 -0.0261811 0.998706
    outer loop
      vertex -35.804 35.4882 25.3801
      vertex -38.8068 34.9152 25.4962
      vertex -37.6276 34.7661 25.4408
    endloop
  endfacet
  facet normal 0.043722 -0.0253007 0.998723
    outer loop
      vertex -37.6276 34.7661 25.4408
      vertex -38.8068 34.9152 25.4962
      vertex -38.421 34.8161 25.4768
    endloop
  endfacet
endsolid OpenSCAD_Model
